/* XPM */
static char * apple_xpm[] = {
"60 60 7 1",
" 	c #000001",
".	c #000000",
"+	c #117521",
"@	c #094112",
"#	c #F1725F",
"$	c #BC3622",
"%	c #6C2015",
"                         .....     ...............          ",
"                         .....     ...............          ",
"                         .....     ...............          ",
"                         .....     ...............          ",
"                         .....     ...............          ",
"                              .....++++++++++@@@@@.....     ",
"                              .....++++++++++@@@@@.....     ",
"                              .....++++++++++@@@@@.....     ",
"                              .....++++++++++@@@@@.....     ",
"                              .....++++++++++@@@@@.....     ",
"          ...............     ....................          ",
"          ...............     ....................          ",
"          ...............     ....................          ",
"          ...............     ....................          ",
"          ...............     ....................          ",
"     .....###############..........$$$$$%%%%%%%%%%.....     ",
"     .....###############..........$$$$$%%%%%%%%%%.....     ",
"     .....###############..........$$$$$%%%%%%%%%%.....     ",
"     .....###############..........$$$$$%%%%%%%%%%.....     ",
"     .....###############..........$$$$$%%%%%%%%%%.....     ",
".....###############$$$$$$$$$$$$$$$$$$$$$$$$$%%%%%%%%%%.....",
".....###############$$$$$$$$$$$$$$$$$$$$$$$$$%%%%%%%%%%.....",
".....###############$$$$$$$$$$$$$$$$$$$$$$$$$%%%%%%%%%%.....",
".....###############$$$$$$$$$$$$$$$$$$$$$$$$$%%%%%%%%%%.....",
".....###############$$$$$$$$$$$$$$$$$$$$$$$$$%%%%%%%%%%.....",
".....##########$$$$$$$$$$$$$$$$$$$$$$$$$$$$$$%%%%%%%%%%.....",
".....##########$$$$$$$$$$$$$$$$$$$$$$$$$$$$$$%%%%%%%%%%.....",
".....##########$$$$$$$$$$$$$$$$$$$$$$$$$$$$$$%%%%%%%%%%.....",
".....##########$$$$$$$$$$$$$$$$$$$$$$$$$$$$$$%%%%%%%%%%.....",
".....##########$$$$$$$$$$$$$$$$$$$$$$$$$$$$$$%%%%%%%%%%.....",
".....#####$$$$$$$$$$$$$$$$$$$$$$$$$$$$$$$$$$$%%%%%%%%%%.....",
".....#####$$$$$$$$$$$$$$$$$$$$$$$$$$$$$$$$$$$%%%%%%%%%%.....",
".....#####$$$$$$$$$$$$$$$$$$$$$$$$$$$$$$$$$$$%%%%%%%%%%.....",
".....#####$$$$$$$$$$$$$$$$$$$$$$$$$$$$$$$$$$$%%%%%%%%%%.....",
".....#####$$$$$$$$$$$$$$$$$$$$$$$$$$$$$$$$$$$%%%%%%%%%%.....",
".....#####$$$$$$$$$$$$$$$$$$$$$$$$$$$$$$$$$$$%%%%%%%%%%.....",
".....#####$$$$$$$$$$$$$$$$$$$$$$$$$$$$$$$$$$$%%%%%%%%%%.....",
".....#####$$$$$$$$$$$$$$$$$$$$$$$$$$$$$$$$$$$%%%%%%%%%%.....",
".....#####$$$$$$$$$$$$$$$$$$$$$$$$$$$$$$$$$$$%%%%%%%%%%.....",
".....$$$$$$$$$$$$$$$$$$$$$$$$$$$$$$$$$$$$$$$$%%%%%%%%%%.....",
".....$$$$$$$$$$$$$$$$$$$$$$$$$$$$$$$$$$$%%%%%%%%%%%%%%%.....",
".....$$$$$$$$$$$$$$$$$$$$$$$$$$$$$$$$$$$%%%%%%%%%%%%%%%.....",
".....$$$$$$$$$$$$$$$$$$$$$$$$$$$$$$$$$$$%%%%%%%%%%%%%%%.....",
".....$$$$$$$$$$$$$$$$$$$$$$$$$$$$$$$$$$$%%%%%%%%%%%%%%%.....",
".....$$$$$$$$$$$$$$$$$$$$$$$$$$$$$$$$$$$%%%%%%%%%%%%%%%.....",
"     .....$$$$$$$$$$$$$$$%%%%%%%%%%%%%%%%%%%%%%%%%.....     ",
"     .....$$$$$$$$$$$$$$$%%%%%%%%%%%%%%%%%%%%%%%%%.....     ",
"     .....$$$$$$$$$$$$$$$%%%%%%%%%%%%%%%%%%%%%%%%%.....     ",
"     .....$$$$$$$$$$$$$$$%%%%%%%%%%%%%%%%%%%%%%%%%.....     ",
"     .....$$$$$$$$$$$$$$$%%%%%%%%%%%%%%%%%%%%%%%%%.....     ",
"          .....$$$$$%%%%%..........%%%%%%%%%%.....          ",
"          .....$$$$$%%%%%..........%%%%%%%%%%.....          ",
"          .....$$$$$%%%%%..........%%%%%%%%%%.....          ",
"          .....$$$$$%%%%%..........%%%%%%%%%%.....          ",
"          .....$$$$$%%%%%..........%%%%%%%%%%.....          ",
"               ..........          ..........               ",
"               ..........          ..........               ",
"               ..........          ..........               ",
"               ..........          ..........               ",
"               ..........          ..........               "};
