/* XPM */
static char * banana_xpm[] = {
"60 60 8 1",
" 	c #000001",
".	c #000000",
"+	c #6A3C0F",
"@	c #3A2006",
"#	c #117521",
"$	c #094112",
"%	c #FBD239",
"&	c #CFA91C",
"                                        ..........          ",
"                                        ..........          ",
"                                        ..........          ",
"                                        ..........          ",
"                                        ..........          ",
"                                   .....+++++@@@@@.....     ",
"                                   .....+++++@@@@@.....     ",
"                                   .....+++++@@@@@.....     ",
"                                   .....+++++@@@@@.....     ",
"                                   .....+++++@@@@@.....     ",
"                                        .....@@@@@.....     ",
"                                        .....@@@@@.....     ",
"                                        .....@@@@@.....     ",
"                                        .....@@@@@.....     ",
"                                        .....@@@@@.....     ",
"                                        .....#####$$$$$.....",
"                                        .....#####$$$$$.....",
"                                        .....#####$$$$$.....",
"                                        .....#####$$$$$.....",
"                                        .....#####$$$$$.....",
"                                        .....%%%%%&&&&&.....",
"                                        .....%%%%%&&&&&.....",
"                                        .....%%%%%&&&&&.....",
"                                        .....%%%%%&&&&&.....",
"                                        .....%%%%%&&&&&.....",
"                                   .....%%%%%%%%%%&&&&&.....",
"                                   .....%%%%%%%%%%&&&&&.....",
"                                   .....%%%%%%%%%%&&&&&.....",
"                                   .....%%%%%%%%%%&&&&&.....",
"                                   .....%%%%%%%%%%&&&&&.....",
"                                   .....%%%%%%%%%%&&&&&.....",
"                                   .....%%%%%%%%%%&&&&&.....",
"                                   .....%%%%%%%%%%&&&&&.....",
"                                   .....%%%%%%%%%%&&&&&.....",
"                                   .....%%%%%%%%%%&&&&&.....",
"..........                    ..........%%%%%%%%%%&&&&&.....",
"..........                    ..........%%%%%%%%%%&&&&&.....",
"..........                    ..........%%%%%%%%%%&&&&&.....",
"..........                    ..........%%%%%%%%%%&&&&&.....",
"..........                    ..........%%%%%%%%%%&&&&&.....",
".....%%%%%.........................%%%%%%%%%%%%%%%.....     ",
".....%%%%%.........................%%%%%%%%%%%%%%%.....     ",
".....%%%%%.........................%%%%%%%%%%%%%%%.....     ",
".....%%%%%.........................%%%%%%%%%%%%%%%.....     ",
".....%%%%%.........................%%%%%%%%%%%%%%%.....     ",
".....%%%%%%%%%%%%%%%%%%%%%%%%%%%%%%%%%%%%%%%%&&&&&.....     ",
".....%%%%%%%%%%%%%%%%%%%%%%%%%%%%%%%%%%%%%%%%&&&&&.....     ",
".....%%%%%%%%%%%%%%%%%%%%%%%%%%%%%%%%%%%%%%%%&&&&&.....     ",
".....%%%%%%%%%%%%%%%%%%%%%%%%%%%%%%%%%%%%%%%%&&&&&.....     ",
"     %%%%%%%%%%%%%%%%%%%%%%%%%%%%%%%%%%%%%%%%&&&&&.....     ",
"     .....&&&&&&&&&&&&&&&&&&&&&&&&&&&&&&&&&&&.....          ",
"     .....&&&&&&&&&&&&&&&&&&&&&&&&&&&&&&&&&&&.....          ",
"     .....&&&&&&&&&&&&&&&&&&&&&&&&&&&&&&&&&&&.....          ",
"     .....&&&&&&&&&&&&&&&&&&&&&&&&&&&&&&&&&&&.....          ",
"     .....&&&&&&&&&&&&&&&&&&&&&&&&&&&&&&&&&&&.....          ",
"          ...................................               ",
"          ...................................               ",
"          ...................................               ",
"          ...................................               ",
"          ...................................               "};
