/* XPM */
static char * chocolate_xpm[] = {
"60 60 10 1",
" 	c #000001",
".	c #000000",
"+	c #42260B",
"@	c #735335",
"#	c #FFFFFF",
"$	c #2E1A06",
"%	c #F1725F",
"&	c #BC3622",
"*	c #6C2015",
"=	c #C9C9C9",
"                                   .....                    ",
"                                   .....                    ",
"                                   .....                    ",
"                                   .....                    ",
"                                   .....                    ",
"                              .....+++++.....               ",
"                              .....+++++.....               ",
"                              .....+++++.....               ",
"                              .....+++++.....               ",
"                              .....+++++.....               ",
"                         .....+++++@@@@@+++++.....          ",
"                         .....+++++@@@@@+++++.....          ",
"                         .....+++++@@@@@+++++.....          ",
"                         .....+++++@@@@@+++++.....          ",
"                         .....+++++@@@@@+++++.....          ",
"               ..........+++++@@@@@++++++++++@@@@@.....     ",
"               ..........+++++@@@@@++++++++++@@@@@.....     ",
"               ..........+++++@@@@@++++++++++@@@@@.....     ",
"               ..........+++++@@@@@++++++++++@@@@@.....     ",
"               ..........+++++@@@@@++++++++++@@@@@.....     ",
"          .....#####.....@@@@@++++++++++@@@@@+++++$$$$$.....",
"          .....#####.....@@@@@++++++++++@@@@@+++++$$$$$.....",
"          .....#####.....@@@@@++++++++++@@@@@+++++$$$$$.....",
"          .....#####.....@@@@@++++++++++@@@@@+++++$$$$$.....",
"          .....#####.....@@@@@++++++++++@@@@@+++++$$$$$.....",
"          .....##########.....+++++@@@@@+++++$$$$$.....     ",
"          .....##########.....+++++@@@@@+++++$$$$$.....     ",
"          .....##########.....+++++@@@@@+++++$$$$$.....     ",
"          .....##########.....+++++@@@@@+++++$$$$$.....     ",
"          .....##########.....+++++@@@@@+++++$$$$$.....     ",
"     .....%%%%%&&&&&&&&&&#####.....+++++$$$$$.....          ",
"     .....%%%%%&&&&&&&&&&#####.....+++++$$$$$.....          ",
"     .....%%%%%&&&&&&&&&&#####.....+++++$$$$$.....          ",
"     .....%%%%%&&&&&&&&&&#####.....+++++$$$$$.....          ",
"     .....%%%%%&&&&&&&&&&#####.....+++++$$$$$.....          ",
".....%%%%%&&&&&&&&&&&&&&&&&&&&#####..........               ",
".....%%%%%&&&&&&&&&&&&&&&&&&&&#####..........               ",
".....%%%%%&&&&&&&&&&&&&&&&&&&&#####..........               ",
".....%%%%%&&&&&&&&&&&&&&&&&&&&#####..........               ",
".....%%%%%&&&&&&&&&&&&&&&&&&&&#####..........               ",
"     .....&&&&&&&&&&&&&&&*****==========.....               ",
"     .....&&&&&&&&&&&&&&&*****==========.....               ",
"     .....&&&&&&&&&&&&&&&*****==========.....               ",
"     .....&&&&&&&&&&&&&&&*****==========.....               ",
"     .....&&&&&&&&&&&&&&&*****==========.....               ",
"          .....&&&&&**********..........                    ",
"          .....&&&&&**********..........                    ",
"          .....&&&&&**********..........                    ",
"          .....&&&&&**********..........                    ",
"          .....&&&&&**********..........                    ",
"               .....*****.....                              ",
"               .....*****.....                              ",
"               .....*****.....                              ",
"               .....*****.....                              ",
"               .....*****.....                              ",
"                    .....                                   ",
"                    .....                                   ",
"                    .....                                   ",
"                    .....                                   ",
"                    .....                                   "};
