/* XPM */
static char * C_xpm[] = {
"45 54 2 1",
" 	c #000001",
".	c #FA9C0A",
"         ....................................",
"         ....................................",
"         ....................................",
"         ....................................",
"         ....................................",
"         ....................................",
"         ....................................",
"         ....................................",
"         ....................................",
".........                                    ",
".........                                    ",
".........                                    ",
".........                                    ",
".........                                    ",
".........                                    ",
".........                                    ",
".........                                    ",
".........                                    ",
".........                                    ",
".........                                    ",
".........                                    ",
".........                                    ",
".........                                    ",
".........                                    ",
".........                                    ",
".........                                    ",
".........                                    ",
".........                                    ",
".........                                    ",
".........                                    ",
".........                                    ",
".........                                    ",
".........                                    ",
".........                                    ",
".........                                    ",
".........                                    ",
".........                                    ",
".........                                    ",
".........                                    ",
".........                                    ",
".........                                    ",
".........                                    ",
".........                                    ",
".........                                    ",
".........                                    ",
"         ....................................",
"         ....................................",
"         ....................................",
"         ....................................",
"         ....................................",
"         ....................................",
"         ....................................",
"         ....................................",
"         ...................................."};
