/* XPM */
static char * S_xpm[] = {
"45 54 2 1",
" 	c None",
".	c #FA9C0A",
"         ....................................",
"         ....................................",
"         ....................................",
"         ....................................",
"         ....................................",
"         ....................................",
"         ....................................",
"         ....................................",
"         ....................................",
".........                                    ",
".........                                    ",
".........                                    ",
".........                                    ",
".........                                    ",
".........                                    ",
".........                                    ",
".........                                    ",
".........                                    ",
"         ...........................         ",
"         ...........................         ",
"         ...........................         ",
"         ...........................         ",
"         ...........................         ",
"         ...........................         ",
"         ...........................         ",
"         ...........................         ",
"         ...........................         ",
"                                    .........",
"                                    .........",
"                                    .........",
"                                    .........",
"                                    .........",
"                                    .........",
"                                    .........",
"                                    .........",
"                                    .........",
"                                    .........",
"                                    .........",
"                                    .........",
"                                    .........",
"                                    .........",
"                                    .........",
"                                    .........",
"                                    .........",
"                                    .........",
"....................................         ",
"....................................         ",
"....................................         ",
"....................................         ",
"....................................         ",
"....................................         ",
"....................................         ",
"....................................         ",
"....................................         "};
