/* XPM */
static char * A_xpm[] = {
"32 32 2 1",
" 	c #000001",
".	c #000000",
"   ............                 ",
"   ............                 ",
"   ............                 ",
"   ............                 ",
"..................              ",
".....        .....              ",
".....        .....              ",
".....        .....              ",
".....        .....              ",
"..................              ",
"..................              ",
"..................              ",
"..................              ",
".....        .....              ",
".....        .....              ",
".....        .....              ",
".....        .....              ",
".....        .....              ",
".....        .....              ",
".....        .....              ",
".....        .....              ",
".....        .....              ",
"                                ",
"                                ",
"                                ",
"                                ",
"                                ",
"                                ",
"                                ",
"                                ",
"                                ",
"                                "};
