/* XPM */
static char * A_xpm[] = {
"18 22 2 1",
" 	c None",
".	c #FD9827",
"   ............   ",
"   ............   ",
"   ............   ",
"   ............   ",
"..................",
".....        .....",
".....        .....",
".....        .....",
".....        .....",
"..................",
"..................",
"..................",
"..................",
".....        .....",
".....        .....",
".....        .....",
".....        .....",
".....        .....",
".....        .....",
".....        .....",
".....        .....",
".....        ....."};
