/* XPM */
static char * coin_xpm[] = {
"35 35 4 1",
" 	c #000001",
".	c #000000",
"+	c #FBD239",
"@	c #CFA91C",
"          ...............          ",
"          ...............          ",
"          ...............          ",
"          ...............          ",
"          ...............          ",
"     .....+++++++++++++++.....     ",
"     .....+++++++++++++++.....     ",
"     .....+++++++++++++++.....     ",
"     .....+++++++++++++++.....     ",
"     .....+++++++++++++++.....     ",
".....++++++++++@@@@@++++++++++.....",
".....++++++++++@@@@@++++++++++.....",
".....++++++++++@@@@@++++++++++.....",
".....++++++++++@@@@@++++++++++.....",
".....++++++++++@@@@@++++++++++.....",
".....++++++++++@@@@@++++++++++.....",
".....++++++++++@@@@@++++++++++.....",
".....++++++++++@@@@@++++++++++.....",
".....++++++++++@@@@@++++++++++.....",
".....++++++++++@@@@@++++++++++.....",
".....++++++++++@@@@@++++++++++.....",
".....++++++++++@@@@@++++++++++.....",
".....++++++++++@@@@@++++++++++.....",
".....++++++++++@@@@@++++++++++.....",
".....++++++++++@@@@@++++++++++.....",
"     .....+++++++++++++++.....     ",
"     .....+++++++++++++++.....     ",
"     .....+++++++++++++++.....     ",
"     .....+++++++++++++++.....     ",
"     .....+++++++++++++++.....     ",
"          ...............          ",
"          ...............          ",
"          ...............          ",
"          ...............          ",
"          ...............          "};
