/* XPM */
static char * exit_icon_small_xpm[] = {
"75 75 2 1",
" 	c #000001",
".	c #030000",
"                              .............................................",
"                              .............................................",
"                              .............................................",
"                              .............................................",
"                              .............................................",
"                              .............................................",
"                              .............................................",
"                              .............................................",
"                              .............................................",
"                              .............................................",
"                              .............................................",
"                              .............................................",
"                              .............................................",
"                              .............................................",
"                              .............................................",
"                    .....                                   ...............",
"                    .....                                   ...............",
"                    .....                                   ...............",
"                    .....                                   ...............",
"                    .....                                   ...............",
"               ..........                                   ...............",
"               ..........                                   ...............",
"               ..........                                   ...............",
"               ..........                                   ...............",
"               ..........                                   ...............",
"          ...............                                   ...............",
"          ...............                                   ...............",
"          ...............                                   ...............",
"          ...............                                   ...............",
"          ...............                                   ...............",
"     ......................................................................",
"     ......................................................................",
"     ......................................................................",
"     ......................................................................",
"     ......................................................................",
"...........................................................................",
"...........................................................................",
"...........................................................................",
"...........................................................................",
"...........................................................................",
"     ......................................................................",
"     ......................................................................",
"     ......................................................................",
"     ......................................................................",
"     ......................................................................",
"          ...............                                   ...............",
"          ...............                                   ...............",
"          ...............                                   ...............",
"          ...............                                   ...............",
"          ...............                                   ...............",
"               ..........                                   ...............",
"               ..........                                   ...............",
"               ..........                                   ...............",
"               ..........                                   ...............",
"               ..........                                   ...............",
"                    .....                                   ...............",
"                    .....                                   ...............",
"                    .....                                   ...............",
"                    .....                                   ...............",
"                    .....                                   ...............",
"                              .............................................",
"                              .............................................",
"                              .............................................",
"                              .............................................",
"                              .............................................",
"                              .............................................",
"                              .............................................",
"                              .............................................",
"                              .............................................",
"                              .............................................",
"                              .............................................",
"                              .............................................",
"                              .............................................",
"                              .............................................",
"                              ............................................."};
