/* XPM */
static char * ExitGame_xpm[] = {
"22 22 5 1",
" 	c None",
".	c #000000",
"+	c #684208",
"@	c #6E4910",
"#	c #7E5310",
"       .+@@@+++@@@@+@+",
"       .@+++@@++++++@@",
"       ............+++",
"                  ..++",
"                   .+@",
"      ..           .+@",
"     .+.           .+@",
"   ..+#.           .++",
"  .++#+........... .++",
" .+#+#+#+++++++##. .+@",
".+++++++#+###++#+. .+@",
" .++##+++#++++###. .+@",
"  .++#+........... .++",
"   ..++.           .++",
"     .+.           .@+",
"      ..           .@+",
"                   .@+",
"                   .+@",
"                  ..+@",
"       ............+++",
"       .+@@@+++@@+++@@",
"       .@++++@@+++++@+"};
