/* XPM */
static char * exitGame_mini_xpm[] = {
"120 120 2 1",
" 	c #000001",
".	c #000000",
"                                             ...........................................................................",
"                                             ...........................................................................",
"                                             ...........................................................................",
"                                             ...........................................................................",
"                                             ...........................................................................",
"                                             ...........................................................................",
"                                             ...........................................................................",
"                                             ...........................................................................",
"                                             ...........................................................................",
"                                             ...........................................................................",
"                                             ...........................................................................",
"                                             ...........................................................................",
"                                             ...........................................................................",
"                                             ...........................................................................",
"                                             ...........................................................................",
"                                             ...........................................................................",
"                                             ...........................................................................",
"                                .........    ...........................................................................",
"                                .........    ...........................................................................",
"                                .........    ...........................................................................",
"                                .........    ...........................................................................",
"                                .........    ...........................................................................",
"                                .........    ...........................................................................",
"                                .........    ...........................................................................",
"                                .........    ...........................................................................",
"                                .........                                                            ...................",
"                       ..................                                                            ...................",
"                       ..................                                                            ...................",
"                       ..................                                                            ...................",
"                       ..................                                                            ...................",
"                       ..................                                                            ...................",
"                       ..................                                                            ...................",
"                       ..................                                                            ...................",
"                       ..................                                                            ...................",
"                       ..................                                                            ...................",
"              ...........................                                                            ...................",
"              ...........................                                                            ...................",
"              ...........................                                                            ...................",
"              ...........................                                                            ...................",
"              ...........................                                                            ...................",
"              ...........................                                                            ...................",
"              ...........................                                                            ...................",
"              ...........................                                                            ...................",
"              ...........................                                                            ...................",
"     ...................................................................................................................",
"     ...................................................................................................................",
"     ...................................................................................................................",
"     ...................................................................................................................",
"     ...................................................................................................................",
"     ...................................................................................................................",
"     ...................................................................................................................",
"     ...................................................................................................................",
"     ...................................................................................................................",
"........................................................................................................................",
"........................................................................................................................",
"........................................................................................................................",
"........................................................................................................................",
"........................................................................................................................",
"........................................................................................................................",
"........................................................................................................................",
"........................................................................................................................",
"........................................................................................................................",
"     ...................................................................................................................",
"     ...................................................................................................................",
"     ...................................................................................................................",
"     ...................................................................................................................",
"     ...................................................................................................................",
"     ...................................................................................................................",
"     ...................................................................................................................",
"     ...................................................................................................................",
"     ...................................................................................................................",
"              ...........................                                                            ...................",
"              ...........................                                                            ...................",
"              ...........................                                                            ...................",
"              ...........................                                                            ...................",
"              ...........................                                                            ...................",
"              ...........................                                                            ...................",
"              ...........................                                                            ...................",
"              ...........................                                                            ...................",
"              ...........................                                                            ...................",
"                       ..................                                                            ...................",
"                       ..................                                                            ...................",
"                       ..................                                                            ...................",
"                       ..................                                                            ...................",
"                       ..................                                                            ...................",
"                       ..................                                                            ...................",
"                       ..................                                                            ...................",
"                       ..................                                                            ...................",
"                       ..................                                                            ...................",
"                                .........                                                            ...................",
"                                .........                                                            ...................",
"                                .........                                                            ...................",
"                                .........                                                            ...................",
"                                .........                                                            ...................",
"                                .........                                                            ...................",
"                                .........                                                            ...................",
"                                .........                                                            ...................",
"                                .........     ..........................................................................",
"                                .........     ..........................................................................",
"                                              ..........................................................................",
"                                              ..........................................................................",
"                                              ..........................................................................",
"                                              ..........................................................................",
"                                              ..........................................................................",
"                                              ..........................................................................",
"                                              ..........................................................................",
"                                              ..........................................................................",
"                                              ..........................................................................",
"                                              ..........................................................................",
"                                              ..........................................................................",
"                                              ..........................................................................",
"                                              ..........................................................................",
"                                              ..........................................................................",
"                                              ..........................................................................",
"                                              ..........................................................................",
"                                              ..........................................................................",
"                                              ..........................................................................",
"                                              ..........................................................................",
"                                              ..........................................................................",
"                                              .........................................................................."};
