/* XPM */
static char * feather_xpm[] = {
"64 64 113 2",
"  	c #000001",
". 	c #000000",
"+ 	c #E4C025",
"@ 	c #E2BE25",
"# 	c #8F7713",
"$ 	c #E6C125",
"% 	c #8F7813",
"& 	c #D2B021",
"* 	c #D0AF21",
"= 	c #998015",
"- 	c #6A580B",
"; 	c #BC9E1C",
"> 	c #BC9E1D",
", 	c #E6C225",
"' 	c #E3BF25",
") 	c #E2BE24",
"! 	c #917914",
"~ 	c #927A14",
"{ 	c #D3B121",
"] 	c #9A8115",
"^ 	c #BA9C1C",
"/ 	c #E4BF09",
"( 	c #FFFFFF",
"_ 	c #BA9C18",
": 	c #E4C020",
"< 	c #E3BE00",
"[ 	c #CFCFCD",
"} 	c #FEFDFC",
"| 	c #FFFEFE",
"1 	c #E4C131",
"2 	c #E5C23D",
"3 	c #F5EAD1",
"4 	c #FDFDFD",
"5 	c #FCFCFC",
"6 	c #D0D0D0",
"7 	c #E3BF04",
"8 	c #F5EACF",
"9 	c #E8CB71",
"0 	c #E9CC75",
"a 	c #F4E7C9",
"b 	c #FBF6EC",
"c 	c #EFDBA9",
"d 	c #E3BF05",
"e 	c #EFDBA8",
"f 	c #E4C021",
"g 	c #FEFEFD",
"h 	c #FEFDFB",
"i 	c #FFFEFD",
"j 	c #E4C134",
"k 	c #E5C340",
"l 	c #F5E9CF",
"m 	c #FBFBFB",
"n 	c #E3BF02",
"o 	c #F5E9CD",
"p 	c #C6C6C6",
"q 	c #EDEDED",
"r 	c #E8CA6D",
"s 	c #E8CB72",
"t 	c #F4E7C8",
"u 	c #FBF7ED",
"v 	c #EFDCAB",
"w 	c #E4C022",
"x 	c #FEFEFC",
"y 	c #E5C238",
"z 	c #E5C343",
"A 	c #E3BF00",
"B 	c #F4E8CB",
"C 	c #F0F0F0",
"D 	c #EEEEEE",
"E 	c #F9F9F9",
"F 	c #E8C96A",
"G 	c #E8CB6F",
"H 	c #F4E6C7",
"I 	c #FBF7EF",
"J 	c #FBF7EE",
"K 	c #CECECE",
"L 	c #F0DDAE",
"M 	c #F0DDAD",
"N 	c #E4C023",
"O 	c #FEFDFA",
"P 	c #E5C23B",
"Q 	c #E5C346",
"R 	c #DC9E46",
"S 	c #D36D26",
"T 	c #DA9826",
"U 	c #F1F1F1",
"V 	c #EFEFEF",
"W 	c #E1B600",
"X 	c #E2B825",
"Y 	c #DB9926",
"Z 	c #CCCCCC",
"` 	c #D26701",
" .	c #B3B3B3",
"..	c #B3B4B4",
"+.	c #FEFCFA",
"@.	c #D5753F",
"#.	c #D57A49",
"$.	c #D27239",
"%.	c #CE6A25",
"&.	c #D06B25",
"*.	c #D26700",
"=.	c #D56E26",
"-.	c #F2F2F2",
";.	c #D56E25",
">.	c #984D18",
",.	c #351703",
"'.	c #351704",
").	c #944A17",
"!.	c #C96824",
"~.	c #F2F3F4",
"{.	c #D26807",
"].	c #C86723",
"^.	c #8C4616",
"                                                                                                                                ",
". . . . . . . .                                                                                                                 ",
". . . . . . . .                                                                                                                 ",
". . . . . . . .                                                                                                                 ",
". . . . + @ @ # . . .                                                                                                           ",
". . . . $ + + % . . .                                                                                                           ",
". . . . $ + + % . . .                                                                                                           ",
". . . . & * * = - - - . . . .                                                                                                   ",
"        . . . ; + + $ . . . .                                                                                                   ",
"        . . . ; + + $ . . . .                                                                                                   ",
"        . . . > + + , . . . .                                                                                                   ",
"              . . . . ' ) ) ! . . . . . . . . . . . . . .                                                                       ",
"              . . . . $ + + ~ . . . . . . . . . . . . . .                                                                       ",
"              . . . . $ + + ~ . . . . . . . . . . . . . .                                                                       ",
"              . . . . { & & ] . . . . . . . . . . . . . . . . . . . . .                                                         ",
"                      . . . ^ + + / ( ( ( ( ( ( ( ( ( ( . . . . . . . .                                                         ",
"                      . . . ^ + + / ( ( ( ( ( ( ( ( ( ( . . . . . . . .                                                         ",
"                      . . . _ : : < ( ( ( ( ( ( ( ( ( ( . . . . . . . .                                                         ",
"                      . . . [ } } | 1 2 2 3 ( ( ( ( ( ( 4 5 5 5 5 5 5 . . . .                                                   ",
"                      . . . 6 ( ( ( 7 + + 8 ( ( ( ( ( ( ( ( ( ( ( ( ( . . . .                                                   ",
"                      . . . 6 ( ( ( 7 + + 8 ( ( ( ( ( ( ( ( ( ( ( ( ( . . . .                                                   ",
"                      . . . 6 ( ( ( 9 0 0 a b b b ( ( ( ( ( ( ( ( ( ( . . . . . . . .                                           ",
"                      . . . 6 ( ( ( ( ( ( c + + d ( ( ( ( ( ( ( ( ( ( ( ( ( ( . . . .                                           ",
"                      . . . 6 ( ( ( ( ( ( c + + d ( ( ( ( ( ( ( ( ( ( ( ( ( ( . . . .                                           ",
"                      . . . 6 ( ( ( ( ( ( e f f < ( ( ( ( ( ( ( ( ( ( ( ( ( ( . . . .                                           ",
"                      . . . 6 ( ( ( ( ( ( g h h i j k k l ( ( ( ( ( ( ( ( ( ( m m m . . . .                                     ",
"                      . . . 6 ( ( ( ( ( ( ( ( ( ( n + + o ( ( ( ( ( ( ( ( ( ( ( ( ( . . . .                                     ",
"                      . . . 6 ( ( ( ( ( ( ( ( ( ( n + + o ( ( ( ( ( ( ( ( ( ( ( ( ( . . . .                                     ",
"                      . . . p q q q ( ( ( ( ( ( ( r s s t u u u ( ( ( ( ( ( ( ( ( ( . . . . . . . .                             ",
"                            . . . . ( ( ( ( ( ( ( ( ( ( v + + n ( ( ( ( ( ( ( ( ( ( ( ( ( ( . . . .                             ",
"                            . . . . ( ( ( ( ( ( ( ( ( ( v + + n ( ( ( ( ( ( ( ( ( ( ( ( ( ( . . . .                             ",
"                            . . . . ( ( ( ( ( ( ( ( ( ( v w w < ( ( ( ( ( ( ( ( ( ( ( ( ( ( . . . .                             ",
"                            . . . . ( ( ( ( ( ( ( ( ( ( x h h g y z z o ( ( ( ( ( ( ( ( ( ( m m m . . . .                       ",
"                            . . . . ( ( ( ( ( ( ( ( ( ( ( ( ( ( A + + B ( ( ( ( ( ( ( ( ( ( ( ( ( . . . .                       ",
"                            . . . . ( ( ( ( ( ( ( ( ( ( ( ( ( ( A + + B ( ( ( ( ( ( ( ( ( ( ( ( ( . . . .                       ",
"                            . . . . C D D E ( ( ( ( ( ( ( ( ( ( F G G H I I J ( ( ( ( ( ( ( ( ( ( . . . . . . . .               ",
"                                    . . . K ( ( ( ( ( ( ( ( ( ( ( ( ( L + + A ( ( ( ( ( ( ( ( ( ( ( ( ( ( . . . .               ",
"                                    . . . K ( ( ( ( ( ( ( ( ( ( ( ( ( L + + A ( ( ( ( ( ( ( ( ( ( ( ( ( ( . . . .               ",
"                                    . . . K ( ( ( ( ( ( ( ( ( ( ( ( ( M N N < ( ( ( ( ( ( ( ( ( ( ( ( ( ( . . . .               ",
"                                          . . . . ( ( ( ( ( ( ( ( ( ( x O O x P Q Q R S S S S S S S S S S S S S S . . .         ",
"                                          . . . . ( ( ( ( ( ( ( ( ( ( ( ( ( ( A + + T S S S S S S S S S S S S S S . . .         ",
"                                          . . . . ( ( ( ( ( ( ( ( ( ( ( ( ( ( A + + T S S S S S S S S S S S S S S . . .         ",
"                                          . . . . U V V E ( ( ( ( ( ( ( ( ( ( W X X Y S S S S S S S S S S S S S S . . .         ",
"                                                  . . . Z ( ( ( ( ( ( ( ( ( ( ` S S S + + < ( ( ( ( ( ( ( ( ( (  .. . .         ",
"                                                  . . . Z ( ( ( ( ( ( ( ( ( ( ` S S S + + < ( ( ( ( ( ( ( ( ( (  .. . .         ",
"                                                  . . . Z ( ( ( ( ( ( ( ( ( ( ` S S S N N < ( ( ( ( ( ( ( ( ( ( ... . .         ",
"                                                        . . . . ( ( ( ( ( ( ( ` S S S +.+.x @.#.#.#.#.#.#.#.#.#.$.%.%.&.. . . . ",
"                                                        . . . . ( ( ( ( ( ( ( ` S S S ( ( ( *.S S S S S S S S S S S S =.. . . . ",
"                                                        . . . . ( ( ( ( ( ( ( ` S S S ( ( ( *.S S S S S S S S S S S S =.. . . . ",
"                                                        . . . . -.U U E ( ( ( ` S S S ( ( ( *.S S S S S S S S S S S S =.. . . . ",
"                                                                . . . . ( ( ( ` S S S ( ( ( *.S S S S S S S S S S S S =.. . . . ",
"                                                                . . . . ( ( ( ` S S S ( ( ( *.S S S S S S S S S S S S =.. . . . ",
"                                                                . . . . ( ( ( ` S S S ( ( ( *.S S S S S S S S S S S S =.. . . . ",
"                                                                      . . . . ;.S S S ( ( ( *.S S S S S S S S S >.,.,.'.. . . . ",
"                                                                      . . . . =.S S S ( ( ( *.S S S S S S S S S ).. . . . . . . ",
"                                                                      . . . . =.S S S ( ( ( *.S S S S S S S S S ).. . . . . . . ",
"                                                                      . . . . !.S S S -.-.~.{.S S S S S S ].].].^.. . . . . . . ",
"                                                                              . . . . . . . =.S S S S S =.. . . . . . . . . . . ",
"                                                                              . . . . . . . =.S S S S S =.. . . . . . . . . . . ",
"                                                                              . . . . . . . =.S S S S S =.. . . . . . . . . . . ",
"                                                                                            . . . . . . . . . . . . . .         ",
"                                                                                            . . . . . . . . . . . . . .         ",
"                                                                                            . . . . . . . . . . . . . .         ",
"                                                                                            . . . . . . . . . . . . . .         "};
