/* XPM */
static char * happiness_bar_max_xpm[] = {
"481 36 2 1",
" 	c #020000",
".	c #FBD239",
"                                                                                                                                                                                                                                                                                                                                                                                                                                                                                                 ",
"                                                                                                                                                                                                                                                                                                                                                                                                                                                                                                 ",
"                                                                                                                                                                                                                                                                                                                                                                                                                                                                                                 ",
"                                                                                                                                                                                                                                                                                                                                                                                                                                                                                                 ",
"                                                                                                                                                                                                                                                                                                                                                                                                                                                                                                 ",
"                                                                                                                                                                                                                                                                                                                                                                                                                                                                                                 ",
"                                                                                                                                                                                                                                                                                                                                                                                                                                                                                                 ",
"                                                                                                                                                                                                                                                                                                                                                                                                                                                                                                 ",
"                                                                                                                                                                                                                                                                                                                                                                                                                                                                                                 ",
"         ...............................................................................................................................................................................................................................................................................................................................................................................................................................................................................         ",
"         ...............................................................................................................................................................................................................................................................................................................................................................................................................................................................................         ",
"         ...............................................................................................................................................................................................................................................................................................................................................................................................................................................................................         ",
"         ...............................................................................................................................................................................................................................................................................................................................................................................................................................................................................         ",
"         ...............................................................................................................................................................................................................................................................................................................................................................................................................................................................................         ",
"         ...............................................................................................................................................................................................................................................................................................................................................................................................................................................................................         ",
"         ...............................................................................................................................................................................................................................................................................................................................................................................................................................................................................         ",
"         ...............................................................................................................................................................................................................................................................................................................................................................................................................................................................................         ",
"         ...............................................................................................................................................................................................................................................................................................................................................................................................................................................................................         ",
"         ...............................................................................................................................................................................................................................................................................................................................................................................................................................................................................         ",
"         ...............................................................................................................................................................................................................................................................................................................................................................................................................................................................................         ",
"         ...............................................................................................................................................................................................................................................................................................................................................................................................................................................................................         ",
"         ...............................................................................................................................................................................................................................................................................................................................................................................................................................................................................         ",
"         ...............................................................................................................................................................................................................................................................................................................................................................................................................................................................................         ",
"         ...............................................................................................................................................................................................................................................................................................................................................................................................................................................................................         ",
"         ...............................................................................................................................................................................................................................................................................................................................................................................................................................................................................         ",
"         ...............................................................................................................................................................................................................................................................................................................................................................................................................................................................................         ",
"         ...............................................................................................................................................................................................................................................................................................................................................................................................................................................................................         ",
"                                                                                                                                                                                                                                                                                                                                                                                                                                                                                                 ",
"                                                                                                                                                                                                                                                                                                                                                                                                                                                                                                 ",
"                                                                                                                                                                                                                                                                                                                                                                                                                                                                                                 ",
"                                                                                                                                                                                                                                                                                                                                                                                                                                                                                                 ",
"                                                                                                                                                                                                                                                                                                                                                                                                                                                                                                 ",
"                                                                                                                                                                                                                                                                                                                                                                                                                                                                                                 ",
"                                                                                                                                                                                                                                                                                                                                                                                                                                                                                                 ",
"                                                                                                                                                                                                                                                                                                                                                                                                                                                                                                 ",
"                                                                                                                                                                                                                                                                                                                                                                                                                                                                                                 "};
