/* XPM */
static char * hotbar_select_xpm[] = {
"96 88 80 1",
" 	c #000001",
".	c #020202",
"+	c #FFFFFF",
"@	c #FDFDFD",
"#	c #F6F6F6",
"$	c #F7F9F7",
"%	c #DDF0D8",
"&	c #FCFEFC",
"*	c #D5E8D0",
"=	c #CEE1C9",
"-	c #D4E7CF",
";	c #DAEDD5",
">	c #D8EBD3",
",	c #CDE0C8",
"'	c #A1B29D",
")	c #313131",
"!	c #FCFCFC",
"~	c #9BAC97",
"{	c #A0B19C",
"]	c #AEBFAA",
"^	c #9AAB96",
"/	c #90A18C",
"(	c #A2B39E",
"_	c #AABBA6",
":	c #5E6C5B",
"<	c #262626",
"[	c #616F5E",
"}	c #5F6D5C",
"|	c #586655",
"1	c #596756",
"2	c #62705F",
"3	c #606E5D",
"4	c #5B6958",
"5	c #5D6B5A",
"6	c #A8B9A4",
"7	c #A5B6A1",
"8	c #202020",
"9	c #2A2A2A",
"0	c #D1E4CC",
"a	c #ACBDA8",
"b	c #E2F5DD",
"c	c #667463",
"d	c #212121",
"e	c #2C2C2C",
"f	c #657362",
"g	c #CADDC5",
"h	c #282828",
"i	c #A9BAA5",
"j	c #D6E9D1",
"k	c #566453",
"l	c #DEF1D9",
"m	c #687665",
"n	c #1F1F1F",
"o	c #292929",
"p	c #5A6857",
"q	c #A3B49F",
"r	c #556352",
"s	c #DCEFD7",
"t	c #677564",
"u	c #6D7B6A",
"v	c #9CAD98",
"w	c #1D1D1D",
"x	c #9DAE99",
"y	c #546251",
"z	c #CFE2CA",
"A	c #A4B5A0",
"B	c #D3E6CE",
"C	c #95A691",
"D	c #D7EAD2",
"E	c #272727",
"F	c #9FB09B",
"G	c #5C6A59",
"H	c #F8FAF8",
"I	c #D0E3CB",
"J	c #D2E5CD",
"K	c #ABBCA7",
"L	c #99AA95",
"M	c #9EAF9A",
"N	c #647261",
"O	c #6E7C6B",
"....++++@@@@####$$$$%%%%&&&&********====----****;;;;********>>>>****,,,,****************''''....",
"....++++@@@@####$$$$%%%%&&&&********====----****;;;;********>>>>****,,,,****************''''....",
"....++++@@@@####$$$$%%%%&&&&********====----****;;;;********>>>>****,,,,****************''''....",
"....++++@@@@####$$$$%%%%&&&&********====----****;;;;********>>>>****,,,,****************''''....",
"))))!!!!''''''''''''~~~~''''''''''''{{{{]]]]^^^^''''////((((^^^^''''^^^^''''''''____''''::::))))",
"))))!!!!''''''''''''~~~~''''''''''''{{{{]]]]^^^^''''////((((^^^^''''^^^^''''''''____''''::::))))",
"))))!!!!''''''''''''~~~~''''''''''''{{{{]]]]^^^^''''////((((^^^^''''^^^^''''''''____''''::::))))",
"))))!!!!''''''''''''~~~~''''''''''''{{{{]]]]^^^^''''////((((^^^^''''^^^^''''''''____''''::::))))",
"<<<<$$$$''''[[[[}}}}||||}}}}1111::::}}}}}}}}}}}}2222}}}}33334444}}}}5555}}}}}}}}66667777}}}}8888",
"<<<<$$$$''''[[[[}}}}||||}}}}1111::::}}}}}}}}}}}}2222}}}}33334444}}}}5555}}}}}}}}66667777}}}}8888",
"<<<<$$$$''''[[[[}}}}||||}}}}1111::::}}}}}}}}}}}}2222}}}}33334444}}}}5555}}}}}}}}66667777}}}}8888",
"<<<<$$$$''''[[[[}}}}||||}}}}1111::::}}}}}}}}}}}}2222}}}}33334444}}}}5555}}}}}}}}66667777}}}}8888",
"9999++++''''}}}}                                                                0000''''}}}}8888",
"9999++++''''}}}}                                                                0000''''}}}}8888",
"9999++++''''}}}}                                                                0000''''}}}}8888",
"9999++++''''}}}}                                                                0000''''}}}}8888",
"9999****aaaa}}}}                                                                bbbb''''ccccdddd",
"9999****aaaa}}}}                                                                bbbb''''ccccdddd",
"9999****aaaa}}}}                                                                bbbb''''ccccdddd",
"9999****aaaa}}}}                                                                bbbb''''ccccdddd",
"eeee****''''}}}}                                                                ****''''ffff8888",
"eeee****''''}}}}                                                                ****''''ffff8888",
"eeee****''''}}}}                                                                ****''''ffff8888",
"eeee****''''}}}}                                                                ****''''ffff8888",
"9999****''''}}}}                                                                ****''''}}}}8888",
"9999****''''}}}}                                                                ****''''}}}}8888",
"9999****''''}}}}                                                                ****''''}}}}8888",
"9999****''''}}}}                                                                ****''''}}}}8888",
"9999gggg''''}}}}                                                                ****''''}}}}8888",
"9999gggg''''}}}}                                                                ****''''}}}}8888",
"9999gggg''''}}}}                                                                ****''''}}}}8888",
"9999gggg''''}}}}                                                                ****''''}}}}8888",
"hhhh****''''}}}}                                                                ****iiii}}}}8888",
"hhhh****''''}}}}                                                                ****iiii}}}}8888",
"hhhh****''''}}}}                                                                ****iiii}}}}8888",
"hhhh****''''}}}}                                                                ****iiii}}}}8888",
"9999jjjjiiii}}}}                                                                >>>>''''kkkk8888",
"9999jjjjiiii}}}}                                                                >>>>''''kkkk8888",
"9999jjjjiiii}}}}                                                                >>>>''''kkkk8888",
"9999jjjjiiii}}}}                                                                >>>>''''kkkk8888",
"9999****''''}}}}                                                                llll''''mmmmnnnn",
"9999****''''}}}}                                                                llll''''mmmmnnnn",
"9999****''''}}}}                                                                llll''''mmmmnnnn",
"9999****''''}}}}                                                                llll''''mmmmnnnn",
"oooo;;;;''''4444                                                                ****''''pppp8888",
"oooo;;;;''''4444                                                                ****''''pppp8888",
"oooo;;;;''''4444                                                                ****''''pppp8888",
"oooo;;;;''''4444                                                                ****''''pppp8888",
"eeee****qqqqrrrr                                                                ****''''}}}}8888",
"eeee****qqqqrrrr                                                                ****''''}}}}8888",
"eeee****qqqqrrrr                                                                ****''''}}}}8888",
"eeee****qqqqrrrr                                                                ****''''}}}}8888",
"9999ssss''''tttt                                                                ****''''}}}}dddd",
"9999ssss''''tttt                                                                ****''''}}}}dddd",
"9999ssss''''tttt                                                                ****''''}}}}dddd",
"9999ssss''''tttt                                                                ****''''}}}}dddd",
"9999****''''uuuu                                                                ****vvvv||||wwww",
"9999****''''uuuu                                                                ****vvvv||||wwww",
"9999****''''uuuu                                                                ****vvvv||||wwww",
"9999****''''uuuu                                                                ****vvvv||||wwww",
"9999ssssxxxx[[[[                                                                ****''''33338888",
"9999ssssxxxx[[[[                                                                ****''''33338888",
"9999ssssxxxx[[[[                                                                ****''''33338888",
"9999ssssxxxx[[[[                                                                ****''''33338888",
"9999gggg''''yyyy                                                                zzzzAAAAffff8888",
"9999gggg''''yyyy                                                                zzzzAAAAffff8888",
"9999gggg''''yyyy                                                                zzzzAAAAffff8888",
"9999gggg''''yyyy                                                                zzzzAAAAffff8888",
"9999BBBBCCCCpppp                                                                DDDD''''}}}}8888",
"9999BBBBCCCCpppp                                                                DDDD''''}}}}8888",
"9999BBBBCCCCpppp                                                                DDDD''''}}}}8888",
"9999BBBBCCCCpppp                                                                DDDD''''}}}}8888",
"EEEE****FFFFGGGG                                                                HHHHFFFFrrrr8888",
"EEEE****FFFFGGGG                                                                HHHHFFFFrrrr8888",
"EEEE****FFFFGGGG                                                                HHHHFFFFrrrr8888",
"EEEE****FFFFGGGG                                                                HHHHFFFFrrrr8888",
"9999jjjj''''IIIIBBBB********>>>>zzzz0000****JJJJ************************;;;;$$$$$$$$''''}}}}EEEE",
"9999jjjj''''IIIIBBBB********>>>>zzzz0000****JJJJ************************;;;;$$$$$$$$''''}}}}EEEE",
"9999jjjj''''IIIIBBBB********>>>>zzzz0000****JJJJ************************;;;;$$$$$$$$''''}}}}EEEE",
"9999jjjj''''IIIIBBBB********>>>>zzzz0000****JJJJ************************;;;;$$$$$$$$''''}}}}EEEE",
"8888****''''''''KKKK^^^^((((''''''''LLLLKKKK''''xxxx''''''''''''MMMM''''MMMM''''FFFF{{{{}}}}8888",
"8888****''''''''KKKK^^^^((((''''''''LLLLKKKK''''xxxx''''''''''''MMMM''''MMMM''''FFFF{{{{}}}}8888",
"8888****''''''''KKKK^^^^((((''''''''LLLLKKKK''''xxxx''''''''''''MMMM''''MMMM''''FFFF{{{{}}}}8888",
"8888****''''''''KKKK^^^^((((''''''''LLLLKKKK''''xxxx''''''''''''MMMM''''MMMM''''FFFF{{{{}}}}8888",
"....''''}}}}}}}}NNNNNNNN1111GGGG}}}}}}}}cccctttt}}}}}}}}}}}}}}}}::::cccc}}}}OOOO}}}}kkkk3333....",
"....''''}}}}}}}}NNNNNNNN1111GGGG}}}}}}}}cccctttt}}}}}}}}}}}}}}}}::::cccc}}}}OOOO}}}}kkkk3333....",
"....''''}}}}}}}}NNNNNNNN1111GGGG}}}}}}}}cccctttt}}}}}}}}}}}}}}}}::::cccc}}}}OOOO}}}}kkkk3333....",
"....''''}}}}}}}}NNNNNNNN1111GGGG}}}}}}}}cccctttt}}}}}}}}}}}}}}}}::::cccc}}}}OOOO}}}}kkkk3333...."};
