/* XPM */
static char * minigames_icon_xpm[] = {
"45 75 5 1",
" 	c #000001",
".	c #020000",
"+	c #9A9FC5",
"@	c #64698F",
"#	c #403F67",
"     ..........     .....     ..........     ",
"     ..........     .....     ..........     ",
"     ..........     .....     ..........     ",
"     ..........     .....     ..........     ",
"     ..........     .....     ..........     ",
"     .....+++++.....+++++.....+++++.....     ",
"     .....+++++.....+++++.....+++++.....     ",
"     .....+++++.....+++++.....+++++.....     ",
"     .....+++++.....+++++.....+++++.....     ",
"     .....+++++.....+++++.....+++++.....     ",
"     .....@@@@@@@@@@@@@@@@@@@@@@@@@.....     ",
"     .....@@@@@@@@@@@@@@@@@@@@@@@@@.....     ",
"     .....@@@@@@@@@@@@@@@@@@@@@@@@@.....     ",
"     .....@@@@@@@@@@@@@@@@@@@@@@@@@.....     ",
"     .....@@@@@@@@@@@@@@@@@@@@@@@@@.....     ",
"          .....###############.....          ",
"          .....###############.....          ",
"          .....###############.....          ",
"          .....###############.....          ",
"          .....###############.....          ",
"          .....@@@@@+++++@@@@@.....          ",
"          .....@@@@@+++++@@@@@.....          ",
"          .....@@@@@+++++@@@@@.....          ",
"          .....@@@@@+++++@@@@@.....          ",
"          .....@@@@@+++++@@@@@.....          ",
"          .....@@@@@+++++@@@@@.....          ",
"          .....@@@@@+++++@@@@@.....          ",
"          .....@@@@@+++++@@@@@.....          ",
"          .....@@@@@+++++@@@@@.....          ",
"          .....@@@@@+++++@@@@@.....          ",
"          .....@@@@@+++++@@@@@.....          ",
"          .....@@@@@+++++@@@@@.....          ",
"          .....@@@@@+++++@@@@@.....          ",
"          .....@@@@@+++++@@@@@.....          ",
"          .....@@@@@+++++@@@@@.....          ",
"          .....@@@@@+++++@@@@@.....          ",
"          .....@@@@@+++++@@@@@.....          ",
"          .....@@@@@+++++@@@@@.....          ",
"          .....@@@@@+++++@@@@@.....          ",
"          .....@@@@@+++++@@@@@.....          ",
"          .....@@@@@+++++@@@@@.....          ",
"          .....@@@@@+++++@@@@@.....          ",
"          .....@@@@@+++++@@@@@.....          ",
"          .....@@@@@+++++@@@@@.....          ",
"          .....@@@@@+++++@@@@@.....          ",
"          .....#####@@@@@#####.....          ",
"          .....#####@@@@@#####.....          ",
"          .....#####@@@@@#####.....          ",
"          .....#####@@@@@#####.....          ",
"          .....#####@@@@@#####.....          ",
"          .....@@@@@+++++@@@@@.....          ",
"          .....@@@@@+++++@@@@@.....          ",
"          .....@@@@@+++++@@@@@.....          ",
"          .....@@@@@+++++@@@@@.....          ",
"          .....@@@@@+++++@@@@@.....          ",
"     .....#####@@@@@###############.....     ",
"     .....#####@@@@@###############.....     ",
"     .....#####@@@@@###############.....     ",
"     .....#####@@@@@###############.....     ",
"     .....#####@@@@@###############.....     ",
".....@@@@@+++++++++++++++@@@@@+++++@@@@@.....",
".....@@@@@+++++++++++++++@@@@@+++++@@@@@.....",
".....@@@@@+++++++++++++++@@@@@+++++@@@@@.....",
".....@@@@@+++++++++++++++@@@@@+++++@@@@@.....",
".....@@@@@+++++++++++++++@@@@@+++++@@@@@.....",
".....@@@@@@@@@@@@@@@@@@@@@@@@@@@@@@@@@@@.....",
".....@@@@@@@@@@@@@@@@@@@@@@@@@@@@@@@@@@@.....",
".....@@@@@@@@@@@@@@@@@@@@@@@@@@@@@@@@@@@.....",
".....@@@@@@@@@@@@@@@@@@@@@@@@@@@@@@@@@@@.....",
".....@@@@@@@@@@@@@@@@@@@@@@@@@@@@@@@@@@@.....",
"     ...................................     ",
"     ...................................     ",
"     ...................................     ",
"     ...................................     ",
"     ...................................     "};
