/* XPM */
static char * paper_xpm[] = {
"105 135 6 1",
" 	c #000001",
".	c #020000",
"+	c #F4F4F4",
"@	c #E0E0E0",
"#	c #9B9B99",
"$	c #BFBFBD",
"...........................................................................                              ",
"...........................................................................                              ",
"...........................................................................                              ",
"...........................................................................                              ",
"...........................................................................                              ",
".....+++++@@@@@@@@@@@@@@@@@@@@@@@@@@@@@@@@@@@@@@@@@@@@@@@@@@@@@@@@@@@@...............                    ",
".....+++++@@@@@@@@@@@@@@@@@@@@@@@@@@@@@@@@@@@@@@@@@@@@@@@@@@@@@@@@@@@@...............                    ",
".....+++++@@@@@@@@@@@@@@@@@@@@@@@@@@@@@@@@@@@@@@@@@@@@@@@@@@@@@@@@@@@@...............                    ",
".....+++++@@@@@@@@@@@@@@@@@@@@@@@@@@@@@@@@@@@@@@@@@@@@@@@@@@@@@@@@@@@@...............                    ",
".....+++++@@@@@@@@@@@@@@@@@@@@@@@@@@@@@@@@@@@@@@@@@@@@@@@@@@@@@@@@@@@@...............                    ",
".....+++++@@@@@@@@@@@@@@@@@@@@@@@@@@@@@@@@@@@@@@@@@@@@@@@@@@@@@@@@@@@@.....#####$$$$$.....               ",
".....+++++@@@@@@@@@@@@@@@@@@@@@@@@@@@@@@@@@@@@@@@@@@@@@@@@@@@@@@@@@@@@.....#####$$$$$.....               ",
".....+++++@@@@@@@@@@@@@@@@@@@@@@@@@@@@@@@@@@@@@@@@@@@@@@@@@@@@@@@@@@@@.....#####$$$$$.....               ",
".....+++++@@@@@@@@@@@@@@@@@@@@@@@@@@@@@@@@@@@@@@@@@@@@@@@@@@@@@@@@@@@@.....#####$$$$$.....               ",
".....+++++@@@@@@@@@@@@@@@@@@@@@@@@@@@@@@@@@@@@@@@@@@+++++@@@@@@@@@@@@@.....#####$$$$$.....               ",
".....+++++@@@@@@@@@@@@@@@@@@@@@@@@@@@@@@@@@@@@@@@@@@+++++@@@@@@@@@@@@@.....#####$$$$$#####.....          ",
".....+++++@@@@@@@@@@@@@@@@@@@@@@@@@@@@@@@@@@@@@@@@@@+++++@@@@@@@@@@@@@.....#####$$$$$#####.....          ",
".....+++++@@@@@@@@@@@@@@@@@@@@@@@@@@@@@@@@@@@@@@@@@@+++++@@@@@@@@@@@@@.....#####$$$$$#####.....          ",
".....+++++@@@@@@@@@@@@@@@@@@@@@@@@@@@@@@@@@@@@@@@@@@+++++@@@@@@@@@@@@@.....#####$$$$$#####.....          ",
".....+++++@@@@@@@@@@@@@@@@@@@@@@@@@@@@@@@@@@@@@@@@@@@@@@@@@@@@@@@@@@@@.....#####$$$$$#####.....          ",
".....+++++@@@@@@@@@@@@@@@@@@@@@@@@@@@@@@@@@@@@@@@@@@@@@@@@@@@@@@@@@@@@.....#####$$$$$$$$$$#####.....     ",
".....+++++@@@@@@@@@@@@@@@+++++@@@@@@@@@@@@@@@@@@@@@@@@@@@@@@@@@@@@@@@@.....#####$$$$$$$$$$#####.....     ",
".....+++++@@@@@@@@@@@@@@@+++++@@@@@@@@@@@@@@@@@@@@@@@@@@@@@@@@@@@@@@@@.....#####$$$$$$$$$$#####.....     ",
".....+++++@@@@@@@@@@@@@@@+++++@@@@@@@@@@@@@@@@@@@@@@@@@@@@@@@@@@@@@@@@.....#####$$$$$$$$$$#####.....     ",
".....+++++@@@@@@@@@@@@@@@+++++@@@@@@@@@@@@@@@@@@@@@@@@@@@@@@@@@@@@@@@@.....#####$$$$$$$$$$#####.....     ",
".....+++++@@@@@@@@@@@@@@@+++++@@@@@@@@@@@@@@@@@@@@@@@@@@@@@@@@@@@@@@@@.....#####$$$$$$$$$$$$$$$$$$$$.....",
".....+++++@@@@@@@@@@@@@@@@@@@@@@@@@@@@@@@@@@@@@@@@@@@@@@@@@@@@@@@@@@@@.....#####$$$$$$$$$$$$$$$$$$$$.....",
".....+++++@@@@@@@@@@@@@@@@@@@@@@@@@@@@@@@@@@@@@@@@@@@@@@@@@@@@@@@@@@@@.....#####$$$$$$$$$$$$$$$$$$$$.....",
".....+++++@@@@@@@@@@@@@@@@@@@@@@@@@@@@@@@@@@@@@@@@@@@@@@@@@@@@@@@@@@@@.....#####$$$$$$$$$$$$$$$$$$$$.....",
".....+++++@@@@@@@@@@@@@@@@@@@@@@@@@@@@@@@@@@@@@@@@@@@@@@@@@@@@@@@@@@@@.....#####$$$$$$$$$$$$$$$$$$$$.....",
".....+++++@@@@@@@@@@@@@@@@@@@@@@@@@@@@@@@@@@@@@@@@@@@@@@@@@@@@@@@@@@@@...................................",
".....+++++@@@@@@@@@@@@@@@@@@@@@@@@@@@@@@@@@@@@@@@@@@@@@@@@@@@@@@@@@@@@...................................",
".....+++++@@@@@@@@@@@@@@@@@@@@@@@@@@@@@@@@@@@@@@@@@@@@@@@@@@@@@@@@@@@@...................................",
".....+++++@@@@@@@@@@@@@@@@@@@@@@@@@@@@@@@@@@@@@@@@@@@@@@@@@@@@@@@@@@@@...................................",
".....+++++@@@@@@@@@@@@@@@@@@@@@@@@@@@@@@@@@@@@@@@@@@@@@@@@@@@@@@@@@@@@...................................",
".....+++++@@@@@@@@@@@@@@@@@@@@@@@@@@@@@@@@@@@@@@@@@@@@@@@@@@@@@@@@@@@@@@@@@@@@@@$$$$$$$$$$$$$$$$$$$$.....",
".....+++++@@@@@@@@@@@@@@@@@@@@@@@@@@@@@@@@@@@@@@@@@@@@@@@@@@@@@@@@@@@@@@@@@@@@@@$$$$$$$$$$$$$$$$$$$$.....",
".....+++++@@@@@@@@@@@@@@@@@@@@@@@@@@@@@@@@@@@@@@@@@@@@@@@@@@@@@@@@@@@@@@@@@@@@@@$$$$$$$$$$$$$$$$$$$$.....",
".....+++++@@@@@@@@@@@@@@@@@@@@@@@@@@@@@@@@@@@@@@@@@@@@@@@@@@@@@@@@@@@@@@@@@@@@@@$$$$$$$$$$$$$$$$$$$$.....",
".....+++++@@@@@@@@@@@@@@@@@@@@@@@@@@@@@@@@@@@@@@@@@@@@@@@@@@@@@@@@@@@@@@@@@@@@@@$$$$$$$$$$$$$$$$$$$$.....",
".....+++++@@@@@@@@@@@@@@@@@@@@@@@@@@@@@@@@@@@@@@@@@@@@@@@@@@@@@@@@@@@@@@@@@@@@@@$$$$$$$$$$$$$$$$$$$$.....",
".....+++++@@@@@@@@@@@@@@@@@@@@@@@@@@@@@@@@@@@@@@@@@@@@@@@@@@@@@@@@@@@@@@@@@@@@@@$$$$$$$$$$$$$$$$$$$$.....",
".....+++++@@@@@@@@@@@@@@@@@@@@@@@@@@@@@@@@@@@@@@@@@@@@@@@@@@@@@@@@@@@@@@@@@@@@@@$$$$$$$$$$$$$$$$$$$$.....",
".....+++++@@@@@@@@@@@@@@@@@@@@@@@@@@@@@@@@@@@@@@@@@@@@@@@@@@@@@@@@@@@@@@@@@@@@@@$$$$$$$$$$$$$$$$$$$$.....",
".....+++++@@@@@@@@@@@@@@@@@@@@@@@@@@@@@@@@@@@@@@@@@@@@@@@@@@@@@@@@@@@@@@@@@@@@@@$$$$$$$$$$$$$$$$$$$$.....",
".....+++++@@@@@@@@@@++++++++++++++++++++@@@@@@@@@@@@@@@@@@@@@@@@@@@@@@@@@@@@@@@@$$$$$$$$$$$$$$$$$$$$.....",
".....+++++@@@@@@@@@@++++++++++++++++++++@@@@@@@@@@@@@@@@@@@@@@@@@@@@@@@@@@@@@@@@$$$$$$$$$$$$$$$$$$$$.....",
".....+++++@@@@@@@@@@++++++++++++++++++++@@@@@@@@@@@@@@@@@@@@@@@@@@@@@@@@@@@@@@@@$$$$$$$$$$$$$$$$$$$$.....",
".....+++++@@@@@@@@@@++++++++++++++++++++@@@@@@@@@@@@@@@@@@@@@@@@@@@@@@@@@@@@@@@@$$$$$$$$$$$$$$$$$$$$.....",
".....+++++@@@@@@@@@@++++++++++++++++++++@@@@@@@@@@@@@@@@@@@@@@@@@@@@@@@@@@@@@@@@$$$$$$$$$$$$$$$$$$$$.....",
".....+++++@@@@@@@@@@@@@@@@@@@@@@@@@@@@@@@@@@@@@@@@+++++@@@@@@@@@@@@@@@@@@@@@@@@@$$$$$$$$$$$$$$$$$$$$.....",
".....+++++@@@@@@@@@@@@@@@@@@@@@@@@@@@@@@@@@@@@@@@@+++++@@@@@@@@@@@@@@@@@@@@@@@@@$$$$$$$$$$$$$$$$$$$$.....",
".....+++++@@@@@@@@@@@@@@@@@@@@@@@@@@@@@@@@@@@@@@@@+++++@@@@@@@@@@@@@@@@@@@@@@@@@$$$$$$$$$$$$$$$$$$$$.....",
".....+++++@@@@@@@@@@@@@@@@@@@@@@@@@@@@@@@@@@@@@@@@+++++@@@@@@@@@@@@@@@@@@@@@@@@@$$$$$$$$$$$$$$$$$$$$.....",
".....+++++@@@@@@@@@@@@@@@@@@@@@@@@@@@@@@@@@@@@@@@@+++++@@@@@@@@@@@@@@@@@@@@@@@@@$$$$$$$$$$$$$$$$$$$$.....",
".....+++++@@@@@@@@@@@@@@@@@@@@@@@@@@@@@@@@@@@@@@@@@@@@@@@@@@@@@@@@@@@@@@@@@@@@@@$$$$$$$$$$$$$$$$$$$$.....",
".....+++++@@@@@@@@@@@@@@@@@@@@@@@@@@@@@@@@@@@@@@@@@@@@@@@@@@@@@@@@@@@@@@@@@@@@@@$$$$$$$$$$$$$$$$$$$$.....",
".....+++++@@@@@@@@@@@@@@@@@@@@@@@@@@@@@@@@@@@@@@@@@@@@@@@@@@@@@@@@@@@@@@@@@@@@@@$$$$$$$$$$$$$$$$$$$$.....",
".....+++++@@@@@@@@@@@@@@@@@@@@@@@@@@@@@@@@@@@@@@@@@@@@@@@@@@@@@@@@@@@@@@@@@@@@@@$$$$$$$$$$$$$$$$$$$$.....",
".....+++++@@@@@@@@@@@@@@@@@@@@@@@@@@@@@@@@@@@@@@@@@@@@@@@@@@@@@@@@@@@@@@@@@@@@@@$$$$$$$$$$$$$$$$$$$$.....",
".....+++++@@@@@@@@@@++++++++++++++++++++@@@@@@@@@@@@@@@@@@@@@@@@@@@+++++@@@@@@@@$$$$$$$$$$$$$$$$$$$$.....",
".....+++++@@@@@@@@@@++++++++++++++++++++@@@@@@@@@@@@@@@@@@@@@@@@@@@+++++@@@@@@@@$$$$$$$$$$$$$$$$$$$$.....",
".....+++++@@@@@@@@@@++++++++++++++++++++@@@@@@@@@@@@@@@@@@@@@@@@@@@+++++@@@@@@@@$$$$$$$$$$$$$$$$$$$$.....",
".....+++++@@@@@@@@@@++++++++++++++++++++@@@@@@@@@@@@@@@@@@@@@@@@@@@+++++@@@@@@@@$$$$$$$$$$$$$$$$$$$$.....",
".....+++++@@@@@@@@@@++++++++++++++++++++@@@@@@@@@@@@@@@@@@@@@@@@@@@+++++@@@@@@@@$$$$$$$$$$$$$$$$$$$$.....",
".....+++++@@@@@@@@@@@@@@@@@@@@@@@@@@@@@@@@@@@@@@@@@@@@@@@@@@@@@@@@@@@@@@@@@@@@@@$$$$$$$$$$$$$$$$$$$$.....",
".....+++++@@@@@@@@@@@@@@@@@@@@@@@@@@@@@@@@@@@@@@@@@@@@@@@@@@@@@@@@@@@@@@@@@@@@@@$$$$$$$$$$$$$$$$$$$$.....",
".....+++++@@@@@@@@@@@@@@@@@@@@@@@@@@@@@@@@@@@@@@@@@@@@@@@@@@@@@@@@@@@@@@@@@@@@@@$$$$$$$$$$$$$$$$$$$$.....",
".....+++++@@@@@@@@@@@@@@@@@@@@@@@@@@@@@@@@@@@@@@@@@@@@@@@@@@@@@@@@@@@@@@@@@@@@@@$$$$$$$$$$$$$$$$$$$$.....",
".....+++++@@@@@@@@@@@@@@@@@@@@@@@@@@@@@@@@@@@@@@@@@@@@@@@@@@@@@@@@@@@@@@@@@@@@@@$$$$$$$$$$$$$$$$$$$$.....",
".....+++++@@@@@@@@@@.................................................................$$$$$$$$$$$$$$$.....",
".....+++++@@@@@@@@@@.................................................................$$$$$$$$$$$$$$$.....",
".....+++++@@@@@@@@@@.................................................................$$$$$$$$$$$$$$$.....",
".....+++++@@@@@@@@@@.................................................................$$$$$$$$$$$$$$$.....",
".....+++++@@@@@@@@@@.................................................................$$$$$$$$$$$$$$$.....",
".....+++++@@@@@@@@@@@@@@@@@@@@@@@@@@@@@@@@@@@@@@@@@@@@@@@@@@@@@@@@@@@@@@@@@@@@@@$$$$$$$$$$$$$$$$$$$$.....",
".....+++++@@@@@@@@@@@@@@@@@@@@@@@@@@@@@@@@@@@@@@@@@@@@@@@@@@@@@@@@@@@@@@@@@@@@@@$$$$$$$$$$$$$$$$$$$$.....",
".....+++++@@@@@@@@@@@@@@@@@@@@@@@@@@@@@@@@@@@@@@@@@@@@@@@@@@@@@@@@@@@@@@@@@@@@@@$$$$$$$$$$$$$$$$$$$$.....",
".....+++++@@@@@@@@@@@@@@@@@@@@@@@@@@@@@@@@@@@@@@@@@@@@@@@@@@@@@@@@@@@@@@@@@@@@@@$$$$$$$$$$$$$$$$$$$$.....",
".....+++++@@@@@@@@@@@@@@@@@@@@@@@@@@@@@@@@@@@@@@@@@@@@@@@@@@@@@@@@@@@@@@@@@@@@@@$$$$$$$$$$$$$$$$$$$$.....",
".....+++++@@@@@@@@@@++++++++++++++++++++@@@@@@@@@@@@@@@@@@@@@@@@@@@@@@@@@@@@@@@@$$$$$$$$$$$$$$$$$$$$.....",
".....+++++@@@@@@@@@@++++++++++++++++++++@@@@@@@@@@@@@@@@@@@@@@@@@@@@@@@@@@@@@@@@$$$$$$$$$$$$$$$$$$$$.....",
".....+++++@@@@@@@@@@++++++++++++++++++++@@@@@@@@@@@@@@@@@@@@@@@@@@@@@@@@@@@@@@@@$$$$$$$$$$$$$$$$$$$$.....",
".....+++++@@@@@@@@@@++++++++++++++++++++@@@@@@@@@@@@@@@@@@@@@@@@@@@@@@@@@@@@@@@@$$$$$$$$$$$$$$$$$$$$.....",
".....+++++@@@@@@@@@@++++++++++++++++++++@@@@@@@@@@@@@@@@@@@@@@@@@@@@@@@@@@@@@@@@$$$$$$$$$$$$$$$$$$$$.....",
".....+++++@@@@@@@@@@.................................................................$$$$$$$$$$$$$$$.....",
".....+++++@@@@@@@@@@.................................................................$$$$$$$$$$$$$$$.....",
".....+++++@@@@@@@@@@.................................................................$$$$$$$$$$$$$$$.....",
".....+++++@@@@@@@@@@.................................................................$$$$$$$$$$$$$$$.....",
".....+++++@@@@@@@@@@.................................................................$$$$$$$$$$$$$$$.....",
".....+++++@@@@@@@@@@@@@@@@@@@@@@@@@@@@@@@@@@@@@@@@@@@@@@@@@@@@@@@@@@@@@@@@@@@@@@$$$$$$$$$$$$$$$$$$$$.....",
".....+++++@@@@@@@@@@@@@@@@@@@@@@@@@@@@@@@@@@@@@@@@@@@@@@@@@@@@@@@@@@@@@@@@@@@@@@$$$$$$$$$$$$$$$$$$$$.....",
".....+++++@@@@@@@@@@@@@@@@@@@@@@@@@@@@@@@@@@@@@@@@@@@@@@@@@@@@@@@@@@@@@@@@@@@@@@$$$$$$$$$$$$$$$$$$$$.....",
".....+++++@@@@@@@@@@@@@@@@@@@@@@@@@@@@@@@@@@@@@@@@@@@@@@@@@@@@@@@@@@@@@@@@@@@@@@$$$$$$$$$$$$$$$$$$$$.....",
".....+++++@@@@@@@@@@@@@@@@@@@@@@@@@@@@@@@@@@@@@@@@@@@@@@@@@@@@@@@@@@@@@@@@@@@@@@$$$$$$$$$$$$$$$$$$$$.....",
".....+++++@@@@@@@@@@++++++++++++++++++++@@@@@@@@@@@@@@@@@@@@@@@@@@@@@@@@@@@@@@@@$$$$$$$$$$$$$$$$$$$$.....",
".....+++++@@@@@@@@@@++++++++++++++++++++@@@@@@@@@@@@@@@@@@@@@@@@@@@@@@@@@@@@@@@@$$$$$$$$$$$$$$$$$$$$.....",
".....+++++@@@@@@@@@@++++++++++++++++++++@@@@@@@@@@@@@@@@@@@@@@@@@@@@@@@@@@@@@@@@$$$$$$$$$$$$$$$$$$$$.....",
".....+++++@@@@@@@@@@++++++++++++++++++++@@@@@@@@@@@@@@@@@@@@@@@@@@@@@@@@@@@@@@@@$$$$$$$$$$$$$$$$$$$$.....",
".....+++++@@@@@@@@@@++++++++++++++++++++@@@@@@@@@@@@@@@@@@@@@@@@@@@@@@@@@@@@@@@@$$$$$$$$$$$$$$$$$$$$.....",
".....+++++@@@@@@@@@@.................................................................$$$$$$$$$$$$$$$.....",
".....+++++@@@@@@@@@@.................................................................$$$$$$$$$$$$$$$.....",
".....+++++@@@@@@@@@@.................................................................$$$$$$$$$$$$$$$.....",
".....+++++@@@@@@@@@@.................................................................$$$$$$$$$$$$$$$.....",
".....+++++@@@@@@@@@@.................................................................$$$$$$$$$$$$$$$.....",
".....+++++@@@@@@@@@@@@@@@@@@@@@@@@@@@@@@@@@@@@@@@@@@@@@@@@@@@@@@@@@@@@@@@@@@@@@@$$$$$$$$$$$$$$$$$$$$.....",
".....+++++@@@@@@@@@@@@@@@@@@@@@@@@@@@@@@@@@@@@@@@@@@@@@@@@@@@@@@@@@@@@@@@@@@@@@@$$$$$$$$$$$$$$$$$$$$.....",
".....+++++@@@@@@@@@@@@@@@@@@@@@@@@@@@@@@@@@@@@@@@@@@@@@@@@@@@@@@@@@@@@@@@@@@@@@@$$$$$$$$$$$$$$$$$$$$.....",
".....+++++@@@@@@@@@@@@@@@@@@@@@@@@@@@@@@@@@@@@@@@@@@@@@@@@@@@@@@@@@@@@@@@@@@@@@@$$$$$$$$$$$$$$$$$$$$.....",
".....+++++@@@@@@@@@@@@@@@@@@@@@@@@@@@@@@@@@@@@@@@@@@@@@@@@@@@@@@@@@@@@@@@@@@@@@@$$$$$$$$$$$$$$$$$$$$.....",
".....+++++@@@@@@@@@@@@@@@@@@@@@@@@@@@@@@@@@@@@@@@@@@@@@@@@@@@@@@@@@@@@@@@@@@@@@@$$$$$$$$$$$$$$$$$$$$.....",
".....+++++@@@@@@@@@@@@@@@@@@@@@@@@@@@@@@@@@@@@@@@@@@@@@@@@@@@@@@@@@@@@@@@@@@@@@@$$$$$$$$$$$$$$$$$$$$.....",
".....+++++@@@@@@@@@@@@@@@@@@@@@@@@@@@@@@@@@@@@@@@@@@@@@@@@@@@@@@@@@@@@@@@@@@@@@@$$$$$$$$$$$$$$$$$$$$.....",
".....+++++@@@@@@@@@@@@@@@@@@@@@@@@@@@@@@@@@@@@@@@@@@@@@@@@@@@@@@@@@@@@@@@@@@@@@@$$$$$$$$$$$$$$$$$$$$.....",
".....+++++@@@@@@@@@@@@@@@@@@@@@@@@@@@@@@@@@@@@@@@@@@@@@@@@@@@@@@@@@@@@@@@@@@@@@@$$$$$$$$$$$$$$$$$$$$.....",
".....+++++@@@@@@@@@@@@@@@@@@@@@@@@@@@@@@@@@@@@@@@@@@@@@@@@@@@@@@@@@@@@@@@@@@@@@@$$$$$$$$$$$$$$$$$$$$.....",
".....+++++@@@@@@@@@@@@@@@@@@@@+++++@@@@@@@@@@@@@@@@@@@@+++++@@@@@@@@@@@@@@@@@@@@$$$$$$$$$$$$$$$$$$$$.....",
".....+++++@@@@@@@@@@@@@@@@@@@@+++++@@@@@@@@@@@@@@@@@@@@+++++@@@@@@@@@@@@@@@@@@@@$$$$$$$$$$$$$$$$$$$$.....",
".....+++++@@@@@@@@@@@@@@@@@@@@+++++@@@@@@@@@@@@@@@@@@@@+++++@@@@@@@@@@@@@@@@@@@@$$$$$$$$$$$$$$$$$$$$.....",
".....+++++@@@@@@@@@@@@@@@@@@@@+++++@@@@@@@@@@@@@@@@@@@@+++++@@@@@@@@@@@@@@@@@@@@$$$$$$$$$$$$$$$$$$$$.....",
".....+++++@@@@@@@@@@@@@@@@@@@@+++++@@@@@@@@@@@@@@@@@@@@+++++@@@@@@@@@@@@@@@@@@@@$$$$$$$$$$$$$$$$$$$$.....",
".....+++++@@@@@@@@@@@@@@@@@@@@@@@@@@@@@@@@@@@@@@@@@@@@@@@@@@@@@@@@@@@@@@@@@@@@@@$$$$$$$$$$$$$$$$$$$$.....",
".....+++++@@@@@@@@@@@@@@@@@@@@@@@@@@@@@@@@@@@@@@@@@@@@@@@@@@@@@@@@@@@@@@@@@@@@@@$$$$$$$$$$$$$$$$$$$$.....",
".....+++++@@@@@@@@@@@@@@@@@@@@@@@@@@@@@@@@@@@@@@@@@@@@@@@@@@@@@@@@@@@@@@@@@@@@@@$$$$$$$$$$$$$$$$$$$$.....",
".....+++++@@@@@@@@@@@@@@@@@@@@@@@@@@@@@@@@@@@@@@@@@@@@@@@@@@@@@@@@@@@@@@@@@@@@@@$$$$$$$$$$$$$$$$$$$$.....",
".....+++++@@@@@@@@@@@@@@@@@@@@@@@@@@@@@@@@@@@@@@@@@@@@@@@@@@@@@@@@@@@@@@@@@@@@@@$$$$$$$$$$$$$$$$$$$$.....",
".....+++++@@@@@@@@@@@@@@@@@@@@@@@@@@@@@@@@@@@@@@@@@@@@@@@@@@@@@@@@@@@@@@@@@@@@@@$$$$$$$$$$$$$$$$$$$$.....",
".....+++++@@@@@@@@@@@@@@@@@@@@@@@@@@@@@@@@@@@@@@@@@@@@@@@@@@@@@@@@@@@@@@@@@@@@@@$$$$$$$$$$$$$$$$$$$$.....",
".....+++++@@@@@@@@@@@@@@@@@@@@@@@@@@@@@@@@@@@@@@@@@@@@@@@@@@@@@@@@@@@@@@@@@@@@@@$$$$$$$$$$$$$$$$$$$$.....",
".....+++++@@@@@@@@@@@@@@@@@@@@@@@@@@@@@@@@@@@@@@@@@@@@@@@@@@@@@@@@@@@@@@@@@@@@@@$$$$$$$$$$$$$$$$$$$$.....",
".........................................................................................................",
".........................................................................................................",
".........................................................................................................",
".........................................................................................................",
"........................................................................................................."};
