/* XPM */
static char * rock_xpm[] = {
"125 90 8 1",
" 	c #000001",
".	c #020000",
"+	c #A6A4AA",
"@	c #7E7A84",
"#	c #605968",
"$	c #4B464E",
"%	c #342D37",
"&	c #251F28",
"                                        ..............................                                                       ",
"                                        ..............................                                                       ",
"                                        ..............................                                                       ",
"                                        ..............................                                                       ",
"                                        ..............................                                                       ",
"                              ..........++++++++++++++++++++++++++++++..........                                             ",
"                              ..........++++++++++++++++++++++++++++++..........                                             ",
"                              ..........++++++++++++++++++++++++++++++..........                                             ",
"                              ..........++++++++++++++++++++++++++++++..........                                             ",
"                              ..........++++++++++++++++++++++++++++++..........                                             ",
"                         .....+++++++++++++++++++++++++++++++++++++++++++++@@@@@..........                                   ",
"                         .....+++++++++++++++++++++++++++++++++++++++++++++@@@@@..........                                   ",
"                         .....+++++++++++++++++++++++++++++++++++++++++++++@@@@@..........                                   ",
"                         .....+++++++++++++++++++++++++++++++++++++++++++++@@@@@..........                                   ",
"                         .....+++++++++++++++++++++++++++++++++++++++++++++@@@@@..........                                   ",
"                    .....@@@@@@@@@@@@@@@+++++@@@@@++++++++++@@@@@+++++@@@@@@@@@@@@@@@@@@@@..........                         ",
"                    .....@@@@@@@@@@@@@@@+++++@@@@@++++++++++@@@@@+++++@@@@@@@@@@@@@@@@@@@@..........                         ",
"                    .....@@@@@@@@@@@@@@@+++++@@@@@++++++++++@@@@@+++++@@@@@@@@@@@@@@@@@@@@..........                         ",
"                    .....@@@@@@@@@@@@@@@+++++@@@@@++++++++++@@@@@+++++@@@@@@@@@@@@@@@@@@@@..........                         ",
"                    .....@@@@@@@@@@@@@@@+++++@@@@@++++++++++@@@@@+++++@@@@@@@@@@@@@@@@@@@@..........                         ",
"               .....@@@@@@@@@@#####@@@@@@@@@@@@@@@@@@@@@@@@@@@@@@@@@@@@@@@@#####@@@@@@@@@@##########.....                    ",
"               .....@@@@@@@@@@#####@@@@@@@@@@@@@@@@@@@@@@@@@@@@@@@@@@@@@@@@#####@@@@@@@@@@##########.....                    ",
"               .....@@@@@@@@@@#####@@@@@@@@@@@@@@@@@@@@@@@@@@@@@@@@@@@@@@@@#####@@@@@@@@@@##########.....                    ",
"               .....@@@@@@@@@@#####@@@@@@@@@@@@@@@@@@@@@@@@@@@@@@@@@@@@@@@@#####@@@@@@@@@@##########.....                    ",
"               .....@@@@@@@@@@#####@@@@@@@@@@@@@@@@@@@@@@@@@@@@@@@@@@@@@@@@#####@@@@@@@@@@##########.....                    ",
"          .....##########@@@@@@@@@@@@@@@@@@@@@@@@@@@@@@@@@@@@@@@@@@@@@@@@@@@@@@@@@@@@###############$$$$$.....               ",
"          .....##########@@@@@@@@@@@@@@@@@@@@@@@@@@@@@@@@@@@@@@@@@@@@@@@@@@@@@@@@@@@@###############$$$$$.....               ",
"          .....##########@@@@@@@@@@@@@@@@@@@@@@@@@@@@@@@@@@@@@@@@@@@@@@@@@@@@@@@@@@@@###############$$$$$.....               ",
"          .....##########@@@@@@@@@@@@@@@@@@@@@@@@@@@@@@@@@@@@@@@@@@@@@@@@@@@@@@@@@@@@###############$$$$$.....               ",
"          .....##########@@@@@@@@@@@@@@@@@@@@@@@@@@@@@@@@@@@@@@@@@@@@@@@@@@@@@@@@@@@@###############$$$$$.....               ",
"     .....#########################@@@@@@@@@@#####@@@@@@@@@@@@@@@#####@@@@@####################$$$$$$$$$$$$$$$.....          ",
"     .....#########################@@@@@@@@@@#####@@@@@@@@@@@@@@@#####@@@@@####################$$$$$$$$$$$$$$$.....          ",
"     .....#########################@@@@@@@@@@#####@@@@@@@@@@@@@@@#####@@@@@####################$$$$$$$$$$$$$$$.....          ",
"     .....#########################@@@@@@@@@@#####@@@@@@@@@@@@@@@#####@@@@@####################$$$$$$$$$$$$$$$.....          ",
"     .....#########################@@@@@@@@@@#####@@@@@@@@@@@@@@@#####@@@@@####################$$$$$$$$$$$$$$$.....          ",
"     .....################################################################################$$$$$$$$$$$$$$$$$$$$$$$$$.....     ",
"     .....################################################################################$$$$$$$$$$$$$$$$$$$$$$$$$.....     ",
"     .....################################################################################$$$$$$$$$$$$$$$$$$$$$$$$$.....     ",
"     .....################################################################################$$$$$$$$$$$$$$$$$$$$$$$$$.....     ",
"     .....################################################################################$$$$$$$$$$$$$$$$$$$$$$$$$.....     ",
".....$$$$$###############@@@@@##################################################$$$$$$$$$$$$$$$$$$$$$$$$$$$$$$%%%%%.....     ",
".....$$$$$###############@@@@@##################################################$$$$$$$$$$$$$$$$$$$$$$$$$$$$$$%%%%%.....     ",
".....$$$$$###############@@@@@##################################################$$$$$$$$$$$$$$$$$$$$$$$$$$$$$$%%%%%.....     ",
".....$$$$$###############@@@@@##################################################$$$$$$$$$$$$$$$$$$$$$$$$$$$$$$%%%%%.....     ",
".....$$$$$###############@@@@@##################################################$$$$$$$$$$$$$$$$$$$$$$$$$$$$$$%%%%%.....     ",
".....$$$$$$$$$$##############################@@@@@#########################$$$$$$$$$$$$$$$$$$$$$$$$$$$$$$%%%%%%%%%%&&&&&.....",
".....$$$$$$$$$$##############################@@@@@#########################$$$$$$$$$$$$$$$$$$$$$$$$$$$$$$%%%%%%%%%%&&&&&.....",
".....$$$$$$$$$$##############################@@@@@#########################$$$$$$$$$$$$$$$$$$$$$$$$$$$$$$%%%%%%%%%%&&&&&.....",
".....$$$$$$$$$$##############################@@@@@#########################$$$$$$$$$$$$$$$$$$$$$$$$$$$$$$%%%%%%%%%%&&&&&.....",
".....$$$$$$$$$$##############################@@@@@#########################$$$$$$$$$$$$$$$$$$$$$$$$$$$$$$%%%%%%%%%%&&&&&.....",
".....$$$$$$$$$$$$$$$#############################################$$$$$$$$$$$$$$$$$$$$$$$$$$$$$$$$$$$%%%%%%%%%%%%%%%&&&&&.....",
".....$$$$$$$$$$$$$$$#############################################$$$$$$$$$$$$$$$$$$$$$$$$$$$$$$$$$$$%%%%%%%%%%%%%%%&&&&&.....",
".....$$$$$$$$$$$$$$$#############################################$$$$$$$$$$$$$$$$$$$$$$$$$$$$$$$$$$$%%%%%%%%%%%%%%%&&&&&.....",
".....$$$$$$$$$$$$$$$#############################################$$$$$$$$$$$$$$$$$$$$$$$$$$$$$$$$$$$%%%%%%%%%%%%%%%&&&&&.....",
".....$$$$$$$$$$$$$$$#############################################$$$$$$$$$$$$$$$$$$$$$$$$$$$$$$$$$$$%%%%%%%%%%%%%%%&&&&&.....",
".....$$$$$$$$$$$$$$$$$$$$##########$$$$$$$$$$##########$$$$$$$$$$$$$$$$$$$$$$$$$$$$$$$$$$$$$$$$%%%%%%%%%%%%%%%&&&&&&&&&&.....",
".....$$$$$$$$$$$$$$$$$$$$##########$$$$$$$$$$##########$$$$$$$$$$$$$$$$$$$$$$$$$$$$$$$$$$$$$$$$%%%%%%%%%%%%%%%&&&&&&&&&&.....",
".....$$$$$$$$$$$$$$$$$$$$##########$$$$$$$$$$##########$$$$$$$$$$$$$$$$$$$$$$$$$$$$$$$$$$$$$$$$%%%%%%%%%%%%%%%&&&&&&&&&&.....",
".....$$$$$$$$$$$$$$$$$$$$##########$$$$$$$$$$##########$$$$$$$$$$$$$$$$$$$$$$$$$$$$$$$$$$$$$$$$%%%%%%%%%%%%%%%&&&&&&&&&&.....",
".....$$$$$$$$$$$$$$$$$$$$##########$$$$$$$$$$##########$$$$$$$$$$$$$$$$$$$$$$$$$$$$$$$$$$$$$$$$%%%%%%%%%%%%%%%&&&&&&&&&&.....",
".....$$$$$$$$$$$$$$$$$$$$$$$$$$$$$$$$$$$$$$$$$$$$$$$$$$$$$$$$$$$$$$$$$$$$$$$$$$$$$$$$$$$$$%%%%%%%%%%%%%%%&&&&&&&&&&&&&&&.....",
".....$$$$$$$$$$$$$$$$$$$$$$$$$$$$$$$$$$$$$$$$$$$$$$$$$$$$$$$$$$$$$$$$$$$$$$$$$$$$$$$$$$$$$%%%%%%%%%%%%%%%&&&&&&&&&&&&&&&.....",
".....$$$$$$$$$$$$$$$$$$$$$$$$$$$$$$$$$$$$$$$$$$$$$$$$$$$$$$$$$$$$$$$$$$$$$$$$$$$$$$$$$$$$$%%%%%%%%%%%%%%%&&&&&&&&&&&&&&&.....",
".....$$$$$$$$$$$$$$$$$$$$$$$$$$$$$$$$$$$$$$$$$$$$$$$$$$$$$$$$$$$$$$$$$$$$$$$$$$$$$$$$$$$$$%%%%%%%%%%%%%%%&&&&&&&&&&&&&&&.....",
".....$$$$$$$$$$$$$$$$$$$$$$$$$$$$$$$$$$$$$$$$$$$$$$$$$$$$$$$$$$$$$$$$$$$$$$$$$$$$$$$$$$$$$%%%%%%%%%%%%%%%&&&&&&&&&&&&&&&.....",
".....&&&&&$$$$$$$$$$#####$$$$$$$$$$$$$$$$$$$$$$$$$$$$$$#####$$$$$$$$$$$$$$$$$$$$$$$$$%%%%%%%%%%%%%%%&&&&&&&&&&&&&&&&&&&&.....",
".....&&&&&$$$$$$$$$$#####$$$$$$$$$$$$$$$$$$$$$$$$$$$$$$#####$$$$$$$$$$$$$$$$$$$$$$$$$%%%%%%%%%%%%%%%&&&&&&&&&&&&&&&&&&&&.....",
".....&&&&&$$$$$$$$$$#####$$$$$$$$$$$$$$$$$$$$$$$$$$$$$$#####$$$$$$$$$$$$$$$$$$$$$$$$$%%%%%%%%%%%%%%%&&&&&&&&&&&&&&&&&&&&.....",
".....&&&&&$$$$$$$$$$#####$$$$$$$$$$$$$$$$$$$$$$$$$$$$$$#####$$$$$$$$$$$$$$$$$$$$$$$$$%%%%%%%%%%%%%%%&&&&&&&&&&&&&&&&&&&&.....",
".....&&&&&$$$$$$$$$$#####$$$$$$$$$$$$$$$$$$$$$$$$$$$$$$#####$$$$$$$$$$$$$$$$$$$$$$$$$%%%%%%%%%%%%%%%&&&&&&&&&&&&&&&&&&&&.....",
".....&&&&&%%%%%$$$$$$$$$$$$$$$$$$$$%%%%%$$$$$%%%%%$$$$$$$$$$$$$$$$$$$$%%%%%%%%%%%%%%%%%%%%%%%%%&&&&&&&&&&&&&&&&&&&&&&&&&.....",
".....&&&&&%%%%%$$$$$$$$$$$$$$$$$$$$%%%%%$$$$$%%%%%$$$$$$$$$$$$$$$$$$$$%%%%%%%%%%%%%%%%%%%%%%%%%&&&&&&&&&&&&&&&&&&&&&&&&&.....",
".....&&&&&%%%%%$$$$$$$$$$$$$$$$$$$$%%%%%$$$$$%%%%%$$$$$$$$$$$$$$$$$$$$%%%%%%%%%%%%%%%%%%%%%%%%%&&&&&&&&&&&&&&&&&&&&&&&&&.....",
".....&&&&&%%%%%$$$$$$$$$$$$$$$$$$$$%%%%%$$$$$%%%%%$$$$$$$$$$$$$$$$$$$$%%%%%%%%%%%%%%%%%%%%%%%%%&&&&&&&&&&&&&&&&&&&&&&&&&.....",
".....&&&&&%%%%%$$$$$$$$$$$$$$$$$$$$%%%%%$$$$$%%%%%$$$$$$$$$$$$$$$$$$$$%%%%%%%%%%%%%%%%%%%%%%%%%&&&&&&&&&&&&&&&&&&&&&&&&&.....",
"     .....&&&&&%%%%%%%%%%%%%%%%%%%%%%%%%%%%%%%%%%%%%%%%%%%%%%%%%%%%%%%%%%%%%%%%%%%%%%&&&&&&&&&&&&&&&&&&&&&&&&&&&&&&.....     ",
"     .....&&&&&%%%%%%%%%%%%%%%%%%%%%%%%%%%%%%%%%%%%%%%%%%%%%%%%%%%%%%%%%%%%%%%%%%%%%%&&&&&&&&&&&&&&&&&&&&&&&&&&&&&&.....     ",
"     .....&&&&&%%%%%%%%%%%%%%%%%%%%%%%%%%%%%%%%%%%%%%%%%%%%%%%%%%%%%%%%%%%%%%%%%%%%%%&&&&&&&&&&&&&&&&&&&&&&&&&&&&&&.....     ",
"     .....&&&&&%%%%%%%%%%%%%%%%%%%%%%%%%%%%%%%%%%%%%%%%%%%%%%%%%%%%%%%%%%%%%%%%%%%%%%&&&&&&&&&&&&&&&&&&&&&&&&&&&&&&.....     ",
"     .....&&&&&%%%%%%%%%%%%%%%%%%%%%%%%%%%%%%%%%%%%%%%%%%%%%%%%%%%%%%%%%%%%%%%%%%%%%%&&&&&&&&&&&&&&&&&&&&&&&&&&&&&&.....     ",
"          .....&&&&&&&&&&&&&&&&&&&&&&&&&&&&&&&&&&&&&&&&&&&&&&&&&&&&&&&&&&&&&&&&&&&&&&&&&&&&&&&&&&&&&&&&&&&&&&&.....          ",
"          .....&&&&&&&&&&&&&&&&&&&&&&&&&&&&&&&&&&&&&&&&&&&&&&&&&&&&&&&&&&&&&&&&&&&&&&&&&&&&&&&&&&&&&&&&&&&&&&&.....          ",
"          .....&&&&&&&&&&&&&&&&&&&&&&&&&&&&&&&&&&&&&&&&&&&&&&&&&&&&&&&&&&&&&&&&&&&&&&&&&&&&&&&&&&&&&&&&&&&&&&&.....          ",
"          .....&&&&&&&&&&&&&&&&&&&&&&&&&&&&&&&&&&&&&&&&&&&&&&&&&&&&&&&&&&&&&&&&&&&&&&&&&&&&&&&&&&&&&&&&&&&&&&&.....          ",
"          .....&&&&&&&&&&&&&&&&&&&&&&&&&&&&&&&&&&&&&&&&&&&&&&&&&&&&&&&&&&&&&&&&&&&&&&&&&&&&&&&&&&&&&&&&&&&&&&&.....          ",
"               ...............................................................................................               ",
"               ...............................................................................................               ",
"               ...............................................................................................               ",
"               ...............................................................................................               ",
"               ...............................................................................................               "};
