/* XPM */
static char * rps_win_xpm[] = {
"333 54 2 1",
" 	c #000001",
".	c #659091",
".........                           .........                  ...........................                  .........                           .........                           .........                           .........         .............................................         .........                           .........",
".........                           .........                  ...........................                  .........                           .........                           .........                           .........         .............................................         .........                           .........",
".........                           .........                  ...........................                  .........                           .........                           .........                           .........         .............................................         .........                           .........",
".........                           .........                  ...........................                  .........                           .........                           .........                           .........         .............................................         .........                           .........",
".........                           .........                  ...........................                  .........                           .........                           .........                           .........         .............................................         .........                           .........",
".........                           .........                  ...........................                  .........                           .........                           .........                           .........         .............................................         .........                           .........",
".........                           .........                  ...........................                  .........                           .........                           .........                           .........         .............................................         .........                           .........",
".........                           .........                  ...........................                  .........                           .........                           .........                           .........         .............................................         .........                           .........",
".........                           .........                  ...........................                  .........                           .........                           .........                           .........         .............................................         .........                           .........",
".........                           .........         .........                           .........         .........                           .........                           .........                           .........                           .........                           ..................                  .........",
".........                           .........         .........                           .........         .........                           .........                           .........                           .........                           .........                           ..................                  .........",
".........                           .........         .........                           .........         .........                           .........                           .........                           .........                           .........                           ..................                  .........",
".........                           .........         .........                           .........         .........                           .........                           .........                           .........                           .........                           ..................                  .........",
".........                           .........         .........                           .........         .........                           .........                           .........                           .........                           .........                           ..................                  .........",
".........                           .........         .........                           .........         .........                           .........                           .........                           .........                           .........                           ..................                  .........",
".........                           .........         .........                           .........         .........                           .........                           .........                           .........                           .........                           ..................                  .........",
".........                           .........         .........                           .........         .........                           .........                           .........                           .........                           .........                           ..................                  .........",
".........                           .........         .........                           .........         .........                           .........                           .........                           .........                           .........                           ..................                  .........",
"         .........         .........                  .........                           .........         .........                           .........                           .........                           .........                           .........                           .........         .........         .........",
"         .........         .........                  .........                           .........         .........                           .........                           .........                           .........                           .........                           .........         .........         .........",
"         .........         .........                  .........                           .........         .........                           .........                           .........                           .........                           .........                           .........         .........         .........",
"         .........         .........                  .........                           .........         .........                           .........                           .........                           .........                           .........                           .........         .........         .........",
"         .........         .........                  .........                           .........         .........                           .........                           .........                           .........                           .........                           .........         .........         .........",
"         .........         .........                  .........                           .........         .........                           .........                           .........                           .........                           .........                           .........         .........         .........",
"         .........         .........                  .........                           .........         .........                           .........                           .........                           .........                           .........                           .........         .........         .........",
"         .........         .........                  .........                           .........         .........                           .........                           .........                           .........                           .........                           .........         .........         .........",
"         .........         .........                  .........                           .........         .........                           .........                           .........                           .........                           .........                           .........         .........         .........",
"                  .........                           .........                           .........         .........                           .........                           .........         .........         .........                           .........                           .........         .........         .........",
"                  .........                           .........                           .........         .........                           .........                           .........         .........         .........                           .........                           .........         .........         .........",
"                  .........                           .........                           .........         .........                           .........                           .........         .........         .........                           .........                           .........         .........         .........",
"                  .........                           .........                           .........         .........                           .........                           .........         .........         .........                           .........                           .........         .........         .........",
"                  .........                           .........                           .........         .........                           .........                           .........         .........         .........                           .........                           .........         .........         .........",
"                  .........                           .........                           .........         .........                           .........                           .........         .........         .........                           .........                           .........         .........         .........",
"                  .........                           .........                           .........         .........                           .........                           .........         .........         .........                           .........                           .........         .........         .........",
"                  .........                           .........                           .........         .........                           .........                           .........         .........         .........                           .........                           .........         .........         .........",
"                  .........                           .........                           .........         .........                           .........                           .........         .........         .........                           .........                           .........         .........         .........",
"                  .........                           .........                           .........         .........                           .........                           .........         .........         .........                           .........                           .........                  ..................",
"                  .........                           .........                           .........         .........                           .........                           .........         .........         .........                           .........                           .........                  ..................",
"                  .........                           .........                           .........         .........                           .........                           .........         .........         .........                           .........                           .........                  ..................",
"                  .........                           .........                           .........         .........                           .........                           .........         .........         .........                           .........                           .........                  ..................",
"                  .........                           .........                           .........         .........                           .........                           .........         .........         .........                           .........                           .........                  ..................",
"                  .........                           .........                           .........         .........                           .........                           .........         .........         .........                           .........                           .........                  ..................",
"                  .........                           .........                           .........         .........                           .........                           .........         .........         .........                           .........                           .........                  ..................",
"                  .........                           .........                           .........         .........                           .........                           .........         .........         .........                           .........                           .........                  ..................",
"                  .........                           .........                           .........         .........                           .........                           .........         .........         .........                           .........                           .........                  ..................",
"                  .........                                    ...........................                           ...........................                                             .........         .........                  .............................................         .........                           .........",
"                  .........                                    ...........................                           ...........................                                             .........         .........                  .............................................         .........                           .........",
"                  .........                                    ...........................                           ...........................                                             .........         .........                  .............................................         .........                           .........",
"                  .........                                    ...........................                           ...........................                                             .........         .........                  .............................................         .........                           .........",
"                  .........                                    ...........................                           ...........................                                             .........         .........                  .............................................         .........                           .........",
"                  .........                                    ...........................                           ...........................                                             .........         .........                  .............................................         .........                           .........",
"                  .........                                    ...........................                           ...........................                                             .........         .........                  .............................................         .........                           .........",
"                  .........                                    ...........................                           ...........................                                             .........         .........                  .............................................         .........                           .........",
"                  .........                                    ...........................                           ...........................                                             .........         .........                  .............................................         .........                           ........."};
