/* XPM */
static char * rps_tie_xpm[] = {
"153 54 2 1",
" 	c #000001",
".	c #659091",
".............................................         .............................................         .............................................",
".............................................         .............................................         .............................................",
".............................................         .............................................         .............................................",
".............................................         .............................................         .............................................",
".............................................         .............................................         .............................................",
".............................................         .............................................         .............................................",
".............................................         .............................................         .............................................",
".............................................         .............................................         .............................................",
".............................................         .............................................         .............................................",
"                  .........                                             .........                           .........                                    ",
"                  .........                                             .........                           .........                                    ",
"                  .........                                             .........                           .........                                    ",
"                  .........                                             .........                           .........                                    ",
"                  .........                                             .........                           .........                                    ",
"                  .........                                             .........                           .........                                    ",
"                  .........                                             .........                           .........                                    ",
"                  .........                                             .........                           .........                                    ",
"                  .........                                             .........                           .........                                    ",
"                  .........                                             .........                           ....................................         ",
"                  .........                                             .........                           ....................................         ",
"                  .........                                             .........                           ....................................         ",
"                  .........                                             .........                           ....................................         ",
"                  .........                                             .........                           ....................................         ",
"                  .........                                             .........                           ....................................         ",
"                  .........                                             .........                           ....................................         ",
"                  .........                                             .........                           ....................................         ",
"                  .........                                             .........                           ....................................         ",
"                  .........                                             .........                           .........                                    ",
"                  .........                                             .........                           .........                                    ",
"                  .........                                             .........                           .........                                    ",
"                  .........                                             .........                           .........                                    ",
"                  .........                                             .........                           .........                                    ",
"                  .........                                             .........                           .........                                    ",
"                  .........                                             .........                           .........                                    ",
"                  .........                                             .........                           .........                                    ",
"                  .........                                             .........                           .........                                    ",
"                  .........                                             .........                           .........                                    ",
"                  .........                                             .........                           .........                                    ",
"                  .........                                             .........                           .........                                    ",
"                  .........                                             .........                           .........                                    ",
"                  .........                                             .........                           .........                                    ",
"                  .........                                             .........                           .........                                    ",
"                  .........                                             .........                           .........                                    ",
"                  .........                                             .........                           .........                                    ",
"                  .........                                             .........                           .........                                    ",
"                  .........                           .............................................         .............................................",
"                  .........                           .............................................         .............................................",
"                  .........                           .............................................         .............................................",
"                  .........                           .............................................         .............................................",
"                  .........                           .............................................         .............................................",
"                  .........                           .............................................         .............................................",
"                  .........                           .............................................         .............................................",
"                  .........                           .............................................         .............................................",
"                  .........                           .............................................         ............................................."};
