/* XPM */
static char * scissors_xpm[] = {
"125 150 11 1",
" 	c #000001",
".	c #020000",
"+	c #FFFFFF",
"@	c #A5A5A5",
"#	c #D1D1D1",
"$	c #7F7F7F",
"%	c #B95353",
"&	c #9A4545",
"*	c #C65C5C",
"=	c #E17F7F",
"-	c #C96060",
"                    ..........                                                                 ..........                    ",
"                    ..........                                                                 ..........                    ",
"                    ..........                                                                 ..........                    ",
"                    ..........                                                                 ..........                    ",
"                    ..........                                                                 ..........                    ",
"                    .....+++++.....                                                       .....@@@@@.....                    ",
"                    .....+++++.....                                                       .....@@@@@.....                    ",
"                    .....+++++.....                                                       .....@@@@@.....                    ",
"                    .....+++++.....                                                       .....@@@@@.....                    ",
"                    .....+++++.....                                                       .....@@@@@.....                    ",
"                    .....++++++++++.....                                             .....@@@@@@@@@@.....                    ",
"                    .....++++++++++.....                                             .....@@@@@@@@@@.....                    ",
"                    .....++++++++++.....                                             .....@@@@@@@@@@.....                    ",
"                    .....++++++++++.....                                             .....@@@@@@@@@@.....                    ",
"                    .....++++++++++.....                                             .....@@@@@@@@@@.....                    ",
"                    .....#####++++++++++.....                                   .....$$$$$@@@@@@@@@@.....                    ",
"                    .....#####++++++++++.....                                   .....$$$$$@@@@@@@@@@.....                    ",
"                    .....#####++++++++++.....                                   .....$$$$$@@@@@@@@@@.....                    ",
"                    .....#####++++++++++.....                                   .....$$$$$@@@@@@@@@@.....                    ",
"                    .....#####++++++++++.....                                   .....$$$$$@@@@@@@@@@.....                    ",
"                    .....#####++++++++++.....                                   .....$$$$$@@@@@@@@@@.....                    ",
"                    .....#####++++++++++.....                                   .....$$$$$@@@@@@@@@@.....                    ",
"                    .....#####++++++++++.....                                   .....$$$$$@@@@@@@@@@.....                    ",
"                    .....#####++++++++++.....                                   .....$$$$$@@@@@@@@@@.....                    ",
"                    .....#####++++++++++.....                                   .....$$$$$@@@@@@@@@@.....                    ",
"                         .....#####++++++++++.....                         .....$$$$$@@@@@@@@@@.....                         ",
"                         .....#####++++++++++.....                         .....$$$$$@@@@@@@@@@.....                         ",
"                         .....#####++++++++++.....                         .....$$$$$@@@@@@@@@@.....                         ",
"                         .....#####++++++++++.....                         .....$$$$$@@@@@@@@@@.....                         ",
"                         .....#####++++++++++.....                         .....$$$$$@@@@@@@@@@.....                         ",
"                         .....#####++++++++++.....                         .....$$$$$@@@@@@@@@@.....                         ",
"                         .....#####++++++++++.....                         .....$$$$$@@@@@@@@@@.....                         ",
"                         .....#####++++++++++.....                         .....$$$$$@@@@@@@@@@.....                         ",
"                         .....#####++++++++++.....                         .....$$$$$@@@@@@@@@@.....                         ",
"                         .....#####++++++++++.....                         .....$$$$$@@@@@@@@@@.....                         ",
"                              .....#####++++++++++.....               .....$$$$$@@@@@@@@@@.....                              ",
"                              .....#####++++++++++.....               .....$$$$$@@@@@@@@@@.....                              ",
"                              .....#####++++++++++.....               .....$$$$$@@@@@@@@@@.....                              ",
"                              .....#####++++++++++.....               .....$$$$$@@@@@@@@@@.....                              ",
"                              .....#####++++++++++.....               .....$$$$$@@@@@@@@@@.....                              ",
"                              .....#####++++++++++.....               .....$$$$$@@@@@@@@@@.....                              ",
"                              .....#####++++++++++.....               .....$$$$$@@@@@@@@@@.....                              ",
"                              .....#####++++++++++.....               .....$$$$$@@@@@@@@@@.....                              ",
"                              .....#####++++++++++.....               .....$$$$$@@@@@@@@@@.....                              ",
"                              .....#####++++++++++.....               .....$$$$$@@@@@@@@@@.....                              ",
"                                   .....#####++++++++++.....     .....$$$$$@@@@@@@@@@.....                                   ",
"                                   .....#####++++++++++.....     .....$$$$$@@@@@@@@@@.....                                   ",
"                                   .....#####++++++++++.....     .....$$$$$@@@@@@@@@@.....                                   ",
"                                   .....#####++++++++++.....     .....$$$$$@@@@@@@@@@.....                                   ",
"                                   .....#####++++++++++.....     .....$$$$$@@@@@@@@@@.....                                   ",
"                                   .....#####++++++++++.....     .....$$$$$@@@@@@@@@@.....                                   ",
"                                   .....#####++++++++++.....     .....$$$$$@@@@@@@@@@.....                                   ",
"                                   .....#####++++++++++.....     .....$$$$$@@@@@@@@@@.....                                   ",
"                                   .....#####++++++++++.....     .....$$$$$@@@@@@@@@@.....                                   ",
"                                   .....#####++++++++++.....     .....$$$$$@@@@@@@@@@.....                                   ",
"                                        .....#####++++++++++.....$$$$$@@@@@@@@@@.....                                        ",
"                                        .....#####++++++++++.....$$$$$@@@@@@@@@@.....                                        ",
"                                        .....#####++++++++++.....$$$$$@@@@@@@@@@.....                                        ",
"                                        .....#####++++++++++.....$$$$$@@@@@@@@@@.....                                        ",
"                                        .....#####++++++++++.....$$$$$@@@@@@@@@@.....                                        ",
"                                        .....#####++++++++++.....$$$$$@@@@@@@@@@.....                                        ",
"                                        .....#####++++++++++.....$$$$$@@@@@@@@@@.....                                        ",
"                                        .....#####++++++++++.....$$$$$@@@@@@@@@@.....                                        ",
"                                        .....#####++++++++++.....$$$$$@@@@@@@@@@.....                                        ",
"                                        .....#####++++++++++.....$$$$$@@@@@@@@@@.....                                        ",
"                                             .....#####++++++++++.....@@@@@.....                                             ",
"                                             .....#####++++++++++.....@@@@@.....                                             ",
"                                             .....#####++++++++++.....@@@@@.....                                             ",
"                                             .....#####++++++++++.....@@@@@.....                                             ",
"                                             .....#####++++++++++.....@@@@@.....                                             ",
"                                             .....#####++++++++++.....@@@@@.....                                             ",
"                                             .....#####++++++++++.....@@@@@.....                                             ",
"                                             .....#####++++++++++.....@@@@@.....                                             ",
"                                             .....#####++++++++++.....@@@@@.....                                             ",
"                                             .....#####++++++++++.....@@@@@.....                                             ",
"                                                  .....#####++++++++++.....                                                  ",
"                                                  .....#####++++++++++.....                                                  ",
"                                                  .....#####++++++++++.....                                                  ",
"                                                  .....#####++++++++++.....                                                  ",
"                                                  .....#####++++++++++.....                                                  ",
"                                                  .....#####++++++++++.....                                                  ",
"                                                  .....#####++++++++++.....                                                  ",
"                                                  .....#####++++++++++.....                                                  ",
"                                                  .....#####++++++++++.....                                                  ",
"                                                  .....#####++++++++++.....                                                  ",
"                                             .....$$$$$.....#####++++++++++.....                                             ",
"                                             .....$$$$$.....#####++++++++++.....                                             ",
"                                             .....$$$$$.....#####++++++++++.....                                             ",
"                                             .....$$$$$.....#####++++++++++.....                                             ",
"                                             .....$$$$$.....#####++++++++++.....                                             ",
"                                             .....$$$$$.....#####++++++++++.....                                             ",
"                                             .....$$$$$.....#####++++++++++.....                                             ",
"                                             .....$$$$$.....#####++++++++++.....                                             ",
"                                             .....$$$$$.....#####++++++++++.....                                             ",
"                                             .....$$$$$.....#####++++++++++.....                                             ",
"               ..............................%%%%%%%%%%&&&&&.....*****==========..............................               ",
"               ..............................%%%%%%%%%%&&&&&.....*****==========..............................               ",
"               ..............................%%%%%%%%%%&&&&&.....*****==========..............................               ",
"               ..............................%%%%%%%%%%&&&&&.....*****==========..............................               ",
"               ..............................%%%%%%%%%%&&&&&.....*****==========..............................               ",
"          .....%%%%%%%%%%%%%%%%%%%%%%%%%%%%%%%%%%%%%%%%&&&&&.....*****========================================.....          ",
"          .....%%%%%%%%%%%%%%%%%%%%%%%%%%%%%%%%%%%%%%%%&&&&&.....*****========================================.....          ",
"          .....%%%%%%%%%%%%%%%%%%%%%%%%%%%%%%%%%%%%%%%%&&&&&.....*****========================================.....          ",
"          .....%%%%%%%%%%%%%%%%%%%%%%%%%%%%%%%%%%%%%%%%&&&&&.....*****========================================.....          ",
"          .....%%%%%%%%%%%%%%%%%%%%%%%%%%%%%%%%%%%%%%%%&&&&&.....*****========================================.....          ",
"     .....%%%%%%%%%%....................%%%%%%%%%%&&&&&.....     .....-----==========....................==========.....     ",
"     .....%%%%%%%%%%....................%%%%%%%%%%&&&&&.....     .....-----==========....................==========.....     ",
"     .....%%%%%%%%%%....................%%%%%%%%%%&&&&&.....     .....-----==========....................==========.....     ",
"     .....%%%%%%%%%%....................%%%%%%%%%%&&&&&.....     .....-----==========....................==========.....     ",
"     .....%%%%%%%%%%....................%%%%%%%%%%&&&&&.....     .....-----==========....................==========.....     ",
".....%%%%%%%%%%.....                    .....%%%%%&&&&&.....     .....*****=====.....                    .....==========.....",
".....%%%%%%%%%%.....                    .....%%%%%&&&&&.....     .....*****=====.....                    .....==========.....",
".....%%%%%%%%%%.....                    .....%%%%%&&&&&.....     .....*****=====.....                    .....==========.....",
".....%%%%%%%%%%.....                    .....%%%%%&&&&&.....     .....*****=====.....                    .....==========.....",
".....%%%%%%%%%%.....                    .....%%%%%&&&&&.....     .....*****=====.....                    .....==========.....",
".....%%%%%.....                         .....&&&&&.....               .....-----.....                         .....=====.....",
".....%%%%%.....                         .....&&&&&.....               .....-----.....                         .....=====.....",
".....%%%%%.....                         .....&&&&&.....               .....-----.....                         .....=====.....",
".....%%%%%.....                         .....&&&&&.....               .....-----.....                         .....=====.....",
".....%%%%%.....                         .....&&&&&.....               .....-----.....                         .....=====.....",
".....%%%%%.....                    .....&&&&&&&&&&.....               .....*****=====.....                    .....=====.....",
".....%%%%%.....                    .....&&&&&&&&&&.....               .....*****=====.....                    .....=====.....",
".....%%%%%.....                    .....&&&&&&&&&&.....               .....*****=====.....                    .....=====.....",
".....%%%%%.....                    .....&&&&&&&&&&.....               .....*****=====.....                    .....=====.....",
".....%%%%%.....                    .....&&&&&&&&&&.....               .....*****=====.....                    .....=====.....",
".....%%%%%.....                    .....&&&&&.....                         .....-----.....                    .....=====.....",
".....%%%%%.....                    .....&&&&&.....                         .....-----.....                    .....=====.....",
".....%%%%%.....                    .....&&&&&.....                         .....-----.....                    .....=====.....",
".....%%%%%.....                    .....&&&&&.....                         .....-----.....                    .....=====.....",
".....%%%%%.....                    .....&&&&&.....                         .....-----.....                    .....=====.....",
".....%%%%%%%%%%.....          .....&&&&&&&&&&.....                         .....*****=====.....          .....==========.....",
".....%%%%%%%%%%.....          .....&&&&&&&&&&.....                         .....*****=====.....          .....==========.....",
".....%%%%%%%%%%.....          .....&&&&&&&&&&.....                         .....*****=====.....          .....==========.....",
".....%%%%%%%%%%.....          .....&&&&&&&&&&.....                         .....*****=====.....          .....==========.....",
".....%%%%%%%%%%.....          .....&&&&&&&&&&.....                         .....*****=====.....          .....==========.....",
"     .....%%%%%%%%%%..........&&&&&&&&&&.....                                   .....*****=====..........==========.....     ",
"     .....%%%%%%%%%%..........&&&&&&&&&&.....                                   .....*****=====..........==========.....     ",
"     .....%%%%%%%%%%..........&&&&&&&&&&.....                                   .....*****=====..........==========.....     ",
"     .....%%%%%%%%%%..........&&&&&&&&&&.....                                   .....*****=====..........==========.....     ",
"     .....%%%%%%%%%%..........&&&&&&&&&&.....                                   .....*****=====..........==========.....     ",
"          .....%%%%%%%%%%&&&&&&&&&&&&&&&.....                                   .....*****-----===============.....          ",
"          .....%%%%%%%%%%&&&&&&&&&&&&&&&.....                                   .....*****-----===============.....          ",
"          .....%%%%%%%%%%&&&&&&&&&&&&&&&.....                                   .....*****-----===============.....          ",
"          .....%%%%%%%%%%&&&&&&&&&&&&&&&.....                                   .....*****-----===============.....          ",
"          .....%%%%%%%%%%&&&&&&&&&&&&&&&.....                                   .....*****-----===============.....          ",
"               .........................                                             .........................               ",
"               .........................                                             .........................               ",
"               .........................                                             .........................               ",
"               .........................                                             .........................               ",
"               .........................                                             .........................               "};
