/* XPM */
static char * happiness_bar_L0_xpm[] = {
"481 36 2 1",
" 	c #020000",
".	c #797A7A",
"                                                                                                                                                                                                                                                                                                                                                                                                                                                                                                 ",
"                                                                                                                                                                                                                                                                                                                                                                                                                                                                                                 ",
"                                                                                                                                                                                                                                                                                                                                                                                                                                                                                                 ",
"                                                                                                                                                                                                                                                                                                                                                                                                                                                                                                 ",
"                                                                                                                                                                                                                                                                                                                                                                                                                                                                                                 ",
"                                                                                                                                                                                                                                                                                                                                                                                                                                                                                                 ",
"                                                                                                                                                                                                                                                                                                                                                                                                                                                                                                 ",
"                                                                                                                                                                                                                                                                                                                                                                                                                                                                                                 ",
"                                                                                                                                                                                                                                                                                                                                                                                                                                                                                                 ",
"         ...............................................................................................................................................................................................................................................................................................................................................................................................................................................................................         ",
"         ...............................................................................................................................................................................................................................................................................................................................................................................................................................................................................         ",
"         ...............................................................................................................................................................................................................................................................................................................................................................................................................................................................................         ",
"         ...............................................................................................................................................................................................................................................................................................................................................................................................................................................................................         ",
"         ...............................................................................................................................................................................................................................................................................................................................................................................................................................................................................         ",
"         ...............................................................................................................................................................................................................................................................................................................................................................................................................................................................................         ",
"         ...............................................................................................................................................................................................................................................................................................................................................................................................................................................................................         ",
"         ...............................................................................................................................................................................................................................................................................................................................................................................................................................................................................         ",
"         ...............................................................................................................................................................................................................................................................................................................................................................................................................................................................................         ",
"         ...............................................................................................................................................................................................................................................................................................................................................................................................................................................................................         ",
"         ...............................................................................................................................................................................................................................................................................................................................................................................................................................................................................         ",
"         ...............................................................................................................................................................................................................................................................................................................................................................................................................................................................................         ",
"         ...............................................................................................................................................................................................................................................................................................................................................................................................................................................................................         ",
"         ...............................................................................................................................................................................................................................................................................................................................................................................................................................................................................         ",
"         ...............................................................................................................................................................................................................................................................................................................................................................................................................................................................................         ",
"         ...............................................................................................................................................................................................................................................................................................................................................................................................................................................................................         ",
"         ...............................................................................................................................................................................................................................................................................................................................................................................................................................................................................         ",
"         ...............................................................................................................................................................................................................................................................................................................................................................................................................................................................................         ",
"                                                                                                                                                                                                                                                                                                                                                                                                                                                                                                 ",
"                                                                                                                                                                                                                                                                                                                                                                                                                                                                                                 ",
"                                                                                                                                                                                                                                                                                                                                                                                                                                                                                                 ",
"                                                                                                                                                                                                                                                                                                                                                                                                                                                                                                 ",
"                                                                                                                                                                                                                                                                                                                                                                                                                                                                                                 ",
"                                                                                                                                                                                                                                                                                                                                                                                                                                                                                                 ",
"                                                                                                                                                                                                                                                                                                                                                                                                                                                                                                 ",
"                                                                                                                                                                                                                                                                                                                                                                                                                                                                                                 ",
"                                                                                                                                                                                                                                                                                                                                                                                                                                                                                                 "};
