/* XPM */
static char * happiness_bar_L6_xpm[] = {
"481 36 3 1",
" 	c #020000",
".	c #FBD239",
"+	c #797A7A",
"                                                                                                                                                                                                                                                                                                                                                                                                                                                                                                 ",
"                                                                                                                                                                                                                                                                                                                                                                                                                                                                                                 ",
"                                                                                                                                                                                                                                                                                                                                                                                                                                                                                                 ",
"                                                                                                                                                                                                                                                                                                                                                                                                                                                                                                 ",
"                                                                                                                                                                                                                                                                                                                                                                                                                                                                                                 ",
"                                                                                                                                                                                                                                                                                                                                                                                                                                                                                                 ",
"                                                                                                                                                                                                                                                                                                                                                                                                                                                                                                 ",
"                                                                                                                                                                                                                                                                                                                                                                                                                                                                                                 ",
"                                                                                                                                                                                                                                                                                                                                                                                                                                                                                                 ",
"         ..............................................................................................................................................................................................................................................+++++++++++++++++++++++++++++++++++++++++++++++++++++++++++++++++++++++++++++++++++++++++++++++++++++++++++++++++++++++++++++++++++++++++++++++++++++++++++++++++++++++++++++++++++++++++++++++++++++++++++++++++++++++++++++++++         ",
"         ..............................................................................................................................................................................................................................................+++++++++++++++++++++++++++++++++++++++++++++++++++++++++++++++++++++++++++++++++++++++++++++++++++++++++++++++++++++++++++++++++++++++++++++++++++++++++++++++++++++++++++++++++++++++++++++++++++++++++++++++++++++++++++++++++         ",
"         ..............................................................................................................................................................................................................................................+++++++++++++++++++++++++++++++++++++++++++++++++++++++++++++++++++++++++++++++++++++++++++++++++++++++++++++++++++++++++++++++++++++++++++++++++++++++++++++++++++++++++++++++++++++++++++++++++++++++++++++++++++++++++++++++++         ",
"         ..............................................................................................................................................................................................................................................+++++++++++++++++++++++++++++++++++++++++++++++++++++++++++++++++++++++++++++++++++++++++++++++++++++++++++++++++++++++++++++++++++++++++++++++++++++++++++++++++++++++++++++++++++++++++++++++++++++++++++++++++++++++++++++++++         ",
"         ..............................................................................................................................................................................................................................................+++++++++++++++++++++++++++++++++++++++++++++++++++++++++++++++++++++++++++++++++++++++++++++++++++++++++++++++++++++++++++++++++++++++++++++++++++++++++++++++++++++++++++++++++++++++++++++++++++++++++++++++++++++++++++++++++         ",
"         ..............................................................................................................................................................................................................................................+++++++++++++++++++++++++++++++++++++++++++++++++++++++++++++++++++++++++++++++++++++++++++++++++++++++++++++++++++++++++++++++++++++++++++++++++++++++++++++++++++++++++++++++++++++++++++++++++++++++++++++++++++++++++++++++++         ",
"         ..............................................................................................................................................................................................................................................+++++++++++++++++++++++++++++++++++++++++++++++++++++++++++++++++++++++++++++++++++++++++++++++++++++++++++++++++++++++++++++++++++++++++++++++++++++++++++++++++++++++++++++++++++++++++++++++++++++++++++++++++++++++++++++++++         ",
"         ..............................................................................................................................................................................................................................................+++++++++++++++++++++++++++++++++++++++++++++++++++++++++++++++++++++++++++++++++++++++++++++++++++++++++++++++++++++++++++++++++++++++++++++++++++++++++++++++++++++++++++++++++++++++++++++++++++++++++++++++++++++++++++++++++         ",
"         ..............................................................................................................................................................................................................................................+++++++++++++++++++++++++++++++++++++++++++++++++++++++++++++++++++++++++++++++++++++++++++++++++++++++++++++++++++++++++++++++++++++++++++++++++++++++++++++++++++++++++++++++++++++++++++++++++++++++++++++++++++++++++++++++++         ",
"         ..............................................................................................................................................................................................................................................+++++++++++++++++++++++++++++++++++++++++++++++++++++++++++++++++++++++++++++++++++++++++++++++++++++++++++++++++++++++++++++++++++++++++++++++++++++++++++++++++++++++++++++++++++++++++++++++++++++++++++++++++++++++++++++++++         ",
"         ..............................................................................................................................................................................................................................................+++++++++++++++++++++++++++++++++++++++++++++++++++++++++++++++++++++++++++++++++++++++++++++++++++++++++++++++++++++++++++++++++++++++++++++++++++++++++++++++++++++++++++++++++++++++++++++++++++++++++++++++++++++++++++++++++         ",
"         ..............................................................................................................................................................................................................................................+++++++++++++++++++++++++++++++++++++++++++++++++++++++++++++++++++++++++++++++++++++++++++++++++++++++++++++++++++++++++++++++++++++++++++++++++++++++++++++++++++++++++++++++++++++++++++++++++++++++++++++++++++++++++++++++++         ",
"         ..............................................................................................................................................................................................................................................+++++++++++++++++++++++++++++++++++++++++++++++++++++++++++++++++++++++++++++++++++++++++++++++++++++++++++++++++++++++++++++++++++++++++++++++++++++++++++++++++++++++++++++++++++++++++++++++++++++++++++++++++++++++++++++++++         ",
"         ..............................................................................................................................................................................................................................................+++++++++++++++++++++++++++++++++++++++++++++++++++++++++++++++++++++++++++++++++++++++++++++++++++++++++++++++++++++++++++++++++++++++++++++++++++++++++++++++++++++++++++++++++++++++++++++++++++++++++++++++++++++++++++++++++         ",
"         ..............................................................................................................................................................................................................................................+++++++++++++++++++++++++++++++++++++++++++++++++++++++++++++++++++++++++++++++++++++++++++++++++++++++++++++++++++++++++++++++++++++++++++++++++++++++++++++++++++++++++++++++++++++++++++++++++++++++++++++++++++++++++++++++++         ",
"         ..............................................................................................................................................................................................................................................+++++++++++++++++++++++++++++++++++++++++++++++++++++++++++++++++++++++++++++++++++++++++++++++++++++++++++++++++++++++++++++++++++++++++++++++++++++++++++++++++++++++++++++++++++++++++++++++++++++++++++++++++++++++++++++++++         ",
"         ..............................................................................................................................................................................................................................................+++++++++++++++++++++++++++++++++++++++++++++++++++++++++++++++++++++++++++++++++++++++++++++++++++++++++++++++++++++++++++++++++++++++++++++++++++++++++++++++++++++++++++++++++++++++++++++++++++++++++++++++++++++++++++++++++         ",
"         ..............................................................................................................................................................................................................................................+++++++++++++++++++++++++++++++++++++++++++++++++++++++++++++++++++++++++++++++++++++++++++++++++++++++++++++++++++++++++++++++++++++++++++++++++++++++++++++++++++++++++++++++++++++++++++++++++++++++++++++++++++++++++++++++++         ",
"                                                                                                                                                                                                                                                                                                                                                                                                                                                                                                 ",
"                                                                                                                                                                                                                                                                                                                                                                                                                                                                                                 ",
"                                                                                                                                                                                                                                                                                                                                                                                                                                                                                                 ",
"                                                                                                                                                                                                                                                                                                                                                                                                                                                                                                 ",
"                                                                                                                                                                                                                                                                                                                                                                                                                                                                                                 ",
"                                                                                                                                                                                                                                                                                                                                                                                                                                                                                                 ",
"                                                                                                                                                                                                                                                                                                                                                                                                                                                                                                 ",
"                                                                                                                                                                                                                                                                                                                                                                                                                                                                                                 ",
"                                                                                                                                                                                                                                                                                                                                                                                                                                                                                                 "};
